%TF.GenerationSoftware,KiCad,Pcbnew,8.0.0*%
%TF.CreationDate,2024-12-08T17:21:19+02:00*%
%TF.ProjectId,Proiect1,50726f69-6563-4743-912e-6b696361645f,rev?*%
%TF.SameCoordinates,PX3aa6a60PY6dac2c0*%
%TF.FileFunction,Copper,L2,Bot*%
%TF.FilePolarity,Positive*%
%FSLAX46Y46*%
G04 Gerber Fmt 4.6, Leading zero omitted, Abs format (unit mm)*
G04 Created by KiCad (PCBNEW 8.0.0) date 2024-12-08 17:21:19*
%MOMM*%
%LPD*%
G01*
G04 APERTURE LIST*
%TA.AperFunction,ViaPad*%
%ADD10C,1.000000*%
%TD*%
%TA.AperFunction,Conductor*%
%ADD11C,0.406400*%
%TD*%
%TA.AperFunction,Conductor*%
%ADD12C,0.457200*%
%TD*%
G04 APERTURE END LIST*
D10*
%TO.N,Net-(Q1-B)*%
X10160000Y12700000D03*
X26670000Y12700000D03*
%TO.N,GND*%
X26035000Y17780000D03*
X29464000Y3048000D03*
X2540000Y33528000D03*
X23876000Y3048000D03*
X6985000Y6985000D03*
%TO.N,+25V*%
X9525000Y31115000D03*
X2540000Y5080000D03*
%TO.N,Net-(Q2-B)*%
X29464000Y36576000D03*
X23876000Y36576000D03*
%TO.N,Net-(Q12-C)*%
X12700000Y33655000D03*
X11430000Y24765000D03*
%TO.N,Net-(Q10-C)*%
X8255000Y17145000D03*
X12065000Y17145000D03*
%TO.N,Net-(Q12-B)*%
X9525000Y26670000D03*
X13335000Y26670000D03*
%TD*%
D11*
%TO.N,Net-(Q1-B)*%
X26670000Y12700000D02*
X10160000Y12700000D01*
D12*
%TO.N,+25V*%
X2540000Y12065000D02*
X2540000Y29464000D01*
X4064000Y30988000D02*
X4191000Y31115000D01*
X2540000Y29464000D02*
X4064000Y30988000D01*
X2540000Y12065000D02*
X2540000Y5080000D01*
X4191000Y31115000D02*
X9525000Y31115000D01*
D11*
%TO.N,Net-(Q2-B)*%
X29464000Y36576000D02*
X23876000Y36576000D01*
%TO.N,Net-(Q12-C)*%
X14605000Y31750000D02*
X12700000Y33655000D01*
X11430000Y24765000D02*
X13970000Y24765000D01*
X14605000Y25400000D02*
X14605000Y31750000D01*
X13970000Y24765000D02*
X14605000Y25400000D01*
%TO.N,Net-(Q10-C)*%
X12065000Y17145000D02*
X8255000Y17145000D01*
%TO.N,Net-(Q12-B)*%
X9525000Y26670000D02*
X13335000Y26670000D01*
%TD*%
%TA.AperFunction,Conductor*%
%TO.N,GND*%
G36*
X38942539Y38979815D02*
G01*
X38988294Y38927011D01*
X38999500Y38875500D01*
X38999500Y1124500D01*
X38979815Y1057461D01*
X38927011Y1011706D01*
X38875500Y1000500D01*
X1124500Y1000500D01*
X1057461Y1020185D01*
X1011706Y1072989D01*
X1000500Y1124500D01*
X1000500Y5080000D01*
X1534659Y5080000D01*
X1553975Y4883871D01*
X1611188Y4695267D01*
X1704086Y4521468D01*
X1704090Y4521461D01*
X1829116Y4369117D01*
X1981460Y4244091D01*
X1981467Y4244087D01*
X2155266Y4151189D01*
X2155269Y4151189D01*
X2155273Y4151186D01*
X2343868Y4093976D01*
X2540000Y4074659D01*
X2736132Y4093976D01*
X2924727Y4151186D01*
X3098538Y4244090D01*
X3250883Y4369117D01*
X3375910Y4521462D01*
X3468814Y4695273D01*
X3526024Y4883868D01*
X3545341Y5080000D01*
X3526024Y5276132D01*
X3468814Y5464727D01*
X3468811Y5464731D01*
X3468811Y5464734D01*
X3375913Y5638533D01*
X3375911Y5638535D01*
X3375910Y5638538D01*
X3353879Y5665383D01*
X3297247Y5734390D01*
X3269934Y5798700D01*
X3269100Y5813055D01*
X3269100Y12700000D01*
X9154659Y12700000D01*
X9173975Y12503871D01*
X9231188Y12315267D01*
X9324086Y12141468D01*
X9324090Y12141461D01*
X9449116Y11989117D01*
X9601460Y11864091D01*
X9601467Y11864087D01*
X9775266Y11771189D01*
X9775269Y11771189D01*
X9775273Y11771186D01*
X9963868Y11713976D01*
X10160000Y11694659D01*
X10356132Y11713976D01*
X10544727Y11771186D01*
X10718538Y11864090D01*
X10753809Y11893037D01*
X10845339Y11968153D01*
X10909649Y11995466D01*
X10924004Y11996300D01*
X25905996Y11996300D01*
X25973035Y11976615D01*
X25984661Y11968153D01*
X26111460Y11864091D01*
X26111467Y11864087D01*
X26285266Y11771189D01*
X26285269Y11771189D01*
X26285273Y11771186D01*
X26473868Y11713976D01*
X26670000Y11694659D01*
X26866132Y11713976D01*
X27054727Y11771186D01*
X27228538Y11864090D01*
X27380883Y11989117D01*
X27505910Y12141462D01*
X27598814Y12315273D01*
X27656024Y12503868D01*
X27675341Y12700000D01*
X27656024Y12896132D01*
X27598814Y13084727D01*
X27598811Y13084731D01*
X27598811Y13084734D01*
X27505913Y13258533D01*
X27505909Y13258540D01*
X27380883Y13410884D01*
X27228539Y13535910D01*
X27228532Y13535914D01*
X27054733Y13628812D01*
X27054727Y13628814D01*
X26866132Y13686024D01*
X26866129Y13686025D01*
X26670000Y13705341D01*
X26473870Y13686025D01*
X26285266Y13628812D01*
X26111467Y13535914D01*
X26111460Y13535910D01*
X25984661Y13431847D01*
X25920351Y13404534D01*
X25905996Y13403700D01*
X10924004Y13403700D01*
X10856965Y13423385D01*
X10845339Y13431847D01*
X10718539Y13535910D01*
X10718532Y13535914D01*
X10544733Y13628812D01*
X10544727Y13628814D01*
X10356132Y13686024D01*
X10356129Y13686025D01*
X10160000Y13705341D01*
X9963870Y13686025D01*
X9775266Y13628812D01*
X9601467Y13535914D01*
X9601460Y13535910D01*
X9449116Y13410884D01*
X9324090Y13258540D01*
X9324086Y13258533D01*
X9231188Y13084734D01*
X9173975Y12896130D01*
X9154659Y12700000D01*
X3269100Y12700000D01*
X3269100Y17145000D01*
X7249659Y17145000D01*
X7268975Y16948871D01*
X7326188Y16760267D01*
X7419086Y16586468D01*
X7419090Y16586461D01*
X7544116Y16434117D01*
X7696460Y16309091D01*
X7696467Y16309087D01*
X7870266Y16216189D01*
X7870269Y16216189D01*
X7870273Y16216186D01*
X8058868Y16158976D01*
X8255000Y16139659D01*
X8451132Y16158976D01*
X8639727Y16216186D01*
X8813538Y16309090D01*
X8848809Y16338037D01*
X8940339Y16413153D01*
X9004649Y16440466D01*
X9019004Y16441300D01*
X11300996Y16441300D01*
X11368035Y16421615D01*
X11379661Y16413153D01*
X11506460Y16309091D01*
X11506467Y16309087D01*
X11680266Y16216189D01*
X11680269Y16216189D01*
X11680273Y16216186D01*
X11868868Y16158976D01*
X12065000Y16139659D01*
X12261132Y16158976D01*
X12449727Y16216186D01*
X12623538Y16309090D01*
X12775883Y16434117D01*
X12900910Y16586462D01*
X12993814Y16760273D01*
X13051024Y16948868D01*
X13070341Y17145000D01*
X13051024Y17341132D01*
X12993814Y17529727D01*
X12993811Y17529731D01*
X12993811Y17529734D01*
X12900913Y17703533D01*
X12900909Y17703540D01*
X12775883Y17855884D01*
X12623539Y17980910D01*
X12623532Y17980914D01*
X12449733Y18073812D01*
X12449727Y18073814D01*
X12261132Y18131024D01*
X12261129Y18131025D01*
X12065000Y18150341D01*
X11868870Y18131025D01*
X11680266Y18073812D01*
X11506467Y17980914D01*
X11506460Y17980910D01*
X11379661Y17876847D01*
X11315351Y17849534D01*
X11300996Y17848700D01*
X9019004Y17848700D01*
X8951965Y17868385D01*
X8940339Y17876847D01*
X8813539Y17980910D01*
X8813532Y17980914D01*
X8639733Y18073812D01*
X8639727Y18073814D01*
X8451132Y18131024D01*
X8451129Y18131025D01*
X8255000Y18150341D01*
X8058870Y18131025D01*
X7870266Y18073812D01*
X7696467Y17980914D01*
X7696460Y17980910D01*
X7544116Y17855884D01*
X7419090Y17703540D01*
X7419086Y17703533D01*
X7326188Y17529734D01*
X7268975Y17341130D01*
X7249659Y17145000D01*
X3269100Y17145000D01*
X3269100Y26670000D01*
X8519659Y26670000D01*
X8538975Y26473871D01*
X8596188Y26285267D01*
X8689086Y26111468D01*
X8689090Y26111461D01*
X8814116Y25959117D01*
X8966460Y25834091D01*
X8966467Y25834087D01*
X9140266Y25741189D01*
X9140269Y25741189D01*
X9140273Y25741186D01*
X9328868Y25683976D01*
X9525000Y25664659D01*
X9721132Y25683976D01*
X9909727Y25741186D01*
X9948550Y25761937D01*
X9996632Y25787638D01*
X10083538Y25834090D01*
X10157534Y25894817D01*
X10210339Y25938153D01*
X10274649Y25965466D01*
X10289004Y25966300D01*
X11107598Y25966300D01*
X11174637Y25946615D01*
X11220392Y25893811D01*
X11230336Y25824653D01*
X11201311Y25761097D01*
X11143594Y25723640D01*
X11045271Y25693814D01*
X10871467Y25600914D01*
X10871460Y25600910D01*
X10719116Y25475884D01*
X10594090Y25323540D01*
X10594086Y25323533D01*
X10501188Y25149734D01*
X10443975Y24961130D01*
X10424659Y24765000D01*
X10443975Y24568871D01*
X10501188Y24380267D01*
X10594086Y24206468D01*
X10594090Y24206461D01*
X10719116Y24054117D01*
X10871460Y23929091D01*
X10871467Y23929087D01*
X11045266Y23836189D01*
X11045269Y23836189D01*
X11045273Y23836186D01*
X11233868Y23778976D01*
X11430000Y23759659D01*
X11626132Y23778976D01*
X11814727Y23836186D01*
X11988538Y23929090D01*
X12023809Y23958037D01*
X12115339Y24033153D01*
X12179649Y24060466D01*
X12194004Y24061300D01*
X13894558Y24061300D01*
X13894578Y24061299D01*
X13900692Y24061299D01*
X14039310Y24061299D01*
X14130768Y24079493D01*
X14175262Y24088343D01*
X14303327Y24141389D01*
X14367497Y24184266D01*
X14418583Y24218400D01*
X14516600Y24316417D01*
X14516601Y24316419D01*
X14523667Y24323485D01*
X14523670Y24323489D01*
X15053579Y24853398D01*
X15053583Y24853400D01*
X15151600Y24951417D01*
X15228611Y25066673D01*
X15263013Y25149727D01*
X15281658Y25194738D01*
X15308701Y25330692D01*
X15308701Y25469309D01*
X15308701Y25474419D01*
X15308700Y25474445D01*
X15308700Y31674557D01*
X15308701Y31674578D01*
X15308701Y31819311D01*
X15281658Y31955257D01*
X15281656Y31955265D01*
X15228613Y32083324D01*
X15151598Y32198586D01*
X15050487Y32299697D01*
X15050456Y32299726D01*
X13737824Y33612358D01*
X13704339Y33673681D01*
X13702102Y33687885D01*
X13686024Y33851130D01*
X13686024Y33851132D01*
X13628814Y34039727D01*
X13628811Y34039731D01*
X13628811Y34039734D01*
X13535913Y34213533D01*
X13535909Y34213540D01*
X13410883Y34365884D01*
X13258539Y34490910D01*
X13258532Y34490914D01*
X13084733Y34583812D01*
X13084727Y34583814D01*
X12896132Y34641024D01*
X12896129Y34641025D01*
X12700000Y34660341D01*
X12503870Y34641025D01*
X12315266Y34583812D01*
X12141467Y34490914D01*
X12141460Y34490910D01*
X11989116Y34365884D01*
X11864090Y34213540D01*
X11864086Y34213533D01*
X11771188Y34039734D01*
X11713975Y33851130D01*
X11694659Y33655000D01*
X11713975Y33458871D01*
X11771188Y33270267D01*
X11864086Y33096468D01*
X11864090Y33096461D01*
X11989116Y32944117D01*
X12141460Y32819091D01*
X12141467Y32819087D01*
X12315266Y32726189D01*
X12315269Y32726189D01*
X12315273Y32726186D01*
X12503868Y32668976D01*
X12667115Y32652898D01*
X12731902Y32626737D01*
X12742642Y32617176D01*
X13864981Y31494837D01*
X13898466Y31433514D01*
X13901300Y31407156D01*
X13901300Y27708643D01*
X13881615Y27641604D01*
X13828811Y27595849D01*
X13759653Y27585905D01*
X13725602Y27597070D01*
X13725359Y27596482D01*
X13719739Y27598810D01*
X13719728Y27598814D01*
X13719727Y27598814D01*
X13531132Y27656024D01*
X13531129Y27656025D01*
X13335000Y27675341D01*
X13138870Y27656025D01*
X12950266Y27598812D01*
X12776467Y27505914D01*
X12776460Y27505910D01*
X12649661Y27401847D01*
X12585351Y27374534D01*
X12570996Y27373700D01*
X10289004Y27373700D01*
X10221965Y27393385D01*
X10210339Y27401847D01*
X10083539Y27505910D01*
X10083532Y27505914D01*
X9909733Y27598812D01*
X9909727Y27598814D01*
X9721132Y27656024D01*
X9721129Y27656025D01*
X9525000Y27675341D01*
X9328870Y27656025D01*
X9140266Y27598812D01*
X8966467Y27505914D01*
X8966460Y27505910D01*
X8814116Y27380884D01*
X8689090Y27228540D01*
X8689086Y27228533D01*
X8596188Y27054734D01*
X8538975Y26866130D01*
X8519659Y26670000D01*
X3269100Y26670000D01*
X3269100Y29110635D01*
X3288785Y29177674D01*
X3305419Y29198316D01*
X4456685Y30349581D01*
X4518008Y30383066D01*
X4544366Y30385900D01*
X8791946Y30385900D01*
X8858985Y30366215D01*
X8870611Y30357753D01*
X8966460Y30279091D01*
X8966467Y30279087D01*
X9140266Y30186189D01*
X9140269Y30186189D01*
X9140273Y30186186D01*
X9328868Y30128976D01*
X9525000Y30109659D01*
X9721132Y30128976D01*
X9909727Y30186186D01*
X10083538Y30279090D01*
X10235883Y30404117D01*
X10360910Y30556462D01*
X10453814Y30730273D01*
X10511024Y30918868D01*
X10530341Y31115000D01*
X10511024Y31311132D01*
X10453814Y31499727D01*
X10453811Y31499731D01*
X10453811Y31499734D01*
X10360913Y31673533D01*
X10360909Y31673540D01*
X10235883Y31825884D01*
X10083539Y31950910D01*
X10083532Y31950914D01*
X9909733Y32043812D01*
X9909727Y32043814D01*
X9721132Y32101024D01*
X9721129Y32101025D01*
X9525000Y32120341D01*
X9328870Y32101025D01*
X9140266Y32043812D01*
X8966467Y31950914D01*
X8966460Y31950910D01*
X8870611Y31872247D01*
X8806301Y31844934D01*
X8791946Y31844100D01*
X4119187Y31844100D01*
X3978336Y31816083D01*
X3978328Y31816081D01*
X3845644Y31761122D01*
X3845635Y31761117D01*
X3726229Y31681332D01*
X3726226Y31681329D01*
X3599228Y31554332D01*
X3599227Y31554332D01*
X3599225Y31554329D01*
X2075226Y30030329D01*
X2024447Y29979551D01*
X1973669Y29928773D01*
X1893883Y29809365D01*
X1893878Y29809356D01*
X1838919Y29676672D01*
X1838917Y29676664D01*
X1810900Y29535815D01*
X1810900Y5813055D01*
X1791215Y5746016D01*
X1782753Y5734390D01*
X1704091Y5638540D01*
X1704086Y5638533D01*
X1611188Y5464734D01*
X1553975Y5276130D01*
X1534659Y5080000D01*
X1000500Y5080000D01*
X1000500Y36576000D01*
X22870659Y36576000D01*
X22889975Y36379871D01*
X22947188Y36191267D01*
X23040086Y36017468D01*
X23040090Y36017461D01*
X23165116Y35865117D01*
X23317460Y35740091D01*
X23317467Y35740087D01*
X23491266Y35647189D01*
X23491269Y35647189D01*
X23491273Y35647186D01*
X23679868Y35589976D01*
X23876000Y35570659D01*
X24072132Y35589976D01*
X24260727Y35647186D01*
X24434538Y35740090D01*
X24469809Y35769037D01*
X24561339Y35844153D01*
X24625649Y35871466D01*
X24640004Y35872300D01*
X28699996Y35872300D01*
X28767035Y35852615D01*
X28778661Y35844153D01*
X28905460Y35740091D01*
X28905467Y35740087D01*
X29079266Y35647189D01*
X29079269Y35647189D01*
X29079273Y35647186D01*
X29267868Y35589976D01*
X29464000Y35570659D01*
X29660132Y35589976D01*
X29848727Y35647186D01*
X30022538Y35740090D01*
X30174883Y35865117D01*
X30299910Y36017462D01*
X30392814Y36191273D01*
X30450024Y36379868D01*
X30469341Y36576000D01*
X30450024Y36772132D01*
X30392814Y36960727D01*
X30392811Y36960731D01*
X30392811Y36960734D01*
X30299913Y37134533D01*
X30299909Y37134540D01*
X30174883Y37286884D01*
X30022539Y37411910D01*
X30022532Y37411914D01*
X29848733Y37504812D01*
X29848727Y37504814D01*
X29660132Y37562024D01*
X29660129Y37562025D01*
X29464000Y37581341D01*
X29267870Y37562025D01*
X29079266Y37504812D01*
X28905467Y37411914D01*
X28905460Y37411910D01*
X28778661Y37307847D01*
X28714351Y37280534D01*
X28699996Y37279700D01*
X24640004Y37279700D01*
X24572965Y37299385D01*
X24561339Y37307847D01*
X24434539Y37411910D01*
X24434532Y37411914D01*
X24260733Y37504812D01*
X24260727Y37504814D01*
X24072132Y37562024D01*
X24072129Y37562025D01*
X23876000Y37581341D01*
X23679870Y37562025D01*
X23491266Y37504812D01*
X23317467Y37411914D01*
X23317460Y37411910D01*
X23165116Y37286884D01*
X23040090Y37134540D01*
X23040086Y37134533D01*
X22947188Y36960734D01*
X22889975Y36772130D01*
X22870659Y36576000D01*
X1000500Y36576000D01*
X1000500Y38875500D01*
X1020185Y38942539D01*
X1072989Y38988294D01*
X1124500Y38999500D01*
X38875500Y38999500D01*
X38942539Y38979815D01*
G37*
%TD.AperFunction*%
%TD*%
M02*
