  0
SECTION
  2
HEADER
  9
$ANGBASE
  50
0.0
  9
$ANGDIR
  70
1
  9
$MEASUREMENT
  70
1
  0
ENDSEC
  0
SECTION
  2
TABLES
  0
TABLE
  2
LTYPE
  70
4
  0
LTYPE
  5
40F
  2
CONTINUOUS
  70
0
  3
Solid line
  72
65
  73
0
  40
0.0
  0
LTYPE
  5
410
  2
DASHDOT
 70
0
  3
Dash Dot ____ _ ____ _
 72
65
 73
4
 40
2.0
 49
1.25
 49
-0.25
 49
0.25
 49
-0.25
  0
LTYPE
  5
411
  2
DASHED
 70
0
  3
Dashed __ __ __ __ __
 72
65
 73
2
 40
0.75
 49
0.5
 49
-0.25
  0
LTYPE
  5
43B
  2
DOTTED
 70
0
  3
Dotted .  .  .  .
 72
65
 73
2
 40
0.2
 49
0.0
 49
-0.2
  0
ENDTAB
  0
TABLE
  2
STYLE
  70
4
  0
STYLE
  2
KICAD
  70
0
  40
0
  41
1
  42
1
  50
0
  71
0
  3
isocp.shx
  0
STYLE
  2
KICADB
  70
0
  40
0
  41
1
  42
1
  50
0
  71
0
  3
isocp.shx
  0
STYLE
  2
KICADI
  70
0
  40
0
  41
1
  42
1
  50
15
  71
0
  3
isocp.shx
  0
STYLE
  2
KICADBI
  70
0
  40
0
  41
1
  42
1
  50
15
  71
0
  3
isocp.shx
  0
ENDTAB
  0
TABLE
  2
LAYER
  70
1
  0
LAYER
  2
BLACK
  70
0
  62
7
  6
CONTINUOUS
  0
ENDTAB
  0
ENDSEC
  0
SECTION
  2
ENTITIES
0
LINE
8
BLACK
6
CONTINUOUS
10
61.5
20
-75.
11
101.5
21
-75.
0
LINE
8
BLACK
6
CONTINUOUS
10
101.5
20
-75.
11
101.5
21
-115.
0
LINE
8
BLACK
6
CONTINUOUS
10
101.5
20
-115.
11
61.5
21
-115.
0
LINE
8
BLACK
6
CONTINUOUS
10
61.5
20
-115.
11
61.5
21
-75.
0
LINE
8
BLACK
6
CONTINUOUS
10
63.8399999999999963
20
-81.2719999999999914
11
64.2399999999999949
21
-81.671999999999997
0
LINE
8
BLACK
6
CONTINUOUS
10
64.2399999999999949
20
-81.2719999999999914
11
63.8399999999999963
21
-81.671999999999997
0
LINE
8
BLACK
6
CONTINUOUS
10
63.8399999999999963
20
-109.7199999999999989
11
64.2399999999999949
21
-110.1199999999999903
0
LINE
8
BLACK
6
CONTINUOUS
10
64.2399999999999949
20
-109.7199999999999989
11
63.8399999999999963
21
-110.1199999999999903
0
LINE
8
BLACK
6
CONTINUOUS
10
68.2849999999999966
20
-107.8149999999999977
11
68.6850000000000023
21
-108.2149999999999892
0
LINE
8
BLACK
6
CONTINUOUS
10
68.6850000000000023
20
-107.8149999999999977
11
68.2849999999999966
21
-108.2149999999999892
0
LINE
8
BLACK
6
CONTINUOUS
10
69.5549999999999926
20
-97.6550000000000011
11
69.9549999999999983
21
-98.0549999999999926
0
LINE
8
BLACK
6
CONTINUOUS
10
69.9549999999999983
20
-97.6550000000000011
11
69.5549999999999926
21
-98.0549999999999926
0
LINE
8
BLACK
6
CONTINUOUS
10
70.8250000000000028
20
-83.6850000000000023
11
71.2249999999999943
21
-84.0849999999999937
0
LINE
8
BLACK
6
CONTINUOUS
10
71.2249999999999943
20
-83.6850000000000023
11
70.8250000000000028
21
-84.0849999999999937
0
LINE
8
BLACK
6
CONTINUOUS
10
70.8250000000000028
20
-88.1299999999999955
11
71.2249999999999943
21
-88.5300000000000011
0
LINE
8
BLACK
6
CONTINUOUS
10
71.2249999999999943
20
-88.1299999999999955
11
70.8250000000000028
21
-88.5300000000000011
0
LINE
8
BLACK
6
CONTINUOUS
10
71.4599999999999937
20
-102.0999999999999943
11
71.8599999999999994
21
-102.5
0
LINE
8
BLACK
6
CONTINUOUS
10
71.8599999999999994
20
-102.0999999999999943
11
71.4599999999999937
21
-102.5
0
LINE
8
BLACK
6
CONTINUOUS
10
72.7299999999999898
20
-90.0349999999999966
11
73.1299999999999955
21
-90.4350000000000023
0
LINE
8
BLACK
6
CONTINUOUS
10
73.1299999999999955
20
-90.0349999999999966
11
72.7299999999999898
21
-90.4350000000000023
0
LINE
8
BLACK
6
CONTINUOUS
10
73.3649999999999949
20
-97.6550000000000011
11
73.7650000000000006
21
-98.0549999999999926
0
LINE
8
BLACK
6
CONTINUOUS
10
73.7650000000000006
20
-97.6550000000000011
11
73.3649999999999949
21
-98.0549999999999926
0
LINE
8
BLACK
6
CONTINUOUS
10
74.
20
-81.144999999999996
11
74.3999999999999915
21
-81.5450000000000017
0
LINE
8
BLACK
6
CONTINUOUS
10
74.3999999999999915
20
-81.144999999999996
11
74.
21
-81.5450000000000017
0
LINE
8
BLACK
6
CONTINUOUS
10
74.6349999999999909
20
-88.1299999999999955
11
75.0349999999999966
21
-88.5300000000000011
0
LINE
8
BLACK
6
CONTINUOUS
10
75.0349999999999966
20
-88.1299999999999955
11
74.6349999999999909
21
-88.5300000000000011
0
LINE
8
BLACK
6
CONTINUOUS
10
85.1760000000000019
20
-78.2239999999999895
11
85.5759999999999934
21
-78.6239999999999952
0
LINE
8
BLACK
6
CONTINUOUS
10
85.5759999999999934
20
-78.2239999999999895
11
85.1760000000000019
21
-78.6239999999999952
0
LINE
8
BLACK
6
CONTINUOUS
10
85.1760000000000019
20
-111.7519999999999953
11
85.5759999999999934
21
-112.152000000000001
0
LINE
8
BLACK
6
CONTINUOUS
10
85.5759999999999934
20
-111.7519999999999953
11
85.1760000000000019
21
-112.152000000000001
0
LINE
8
BLACK
6
CONTINUOUS
10
87.3349999999999937
20
-97.019999999999996
11
87.7349999999999994
21
-97.4200000000000017
0
LINE
8
BLACK
6
CONTINUOUS
10
87.7349999999999994
20
-97.019999999999996
11
87.3349999999999937
21
-97.4200000000000017
0
LINE
8
BLACK
6
CONTINUOUS
10
87.9699999999999989
20
-102.0999999999999943
11
88.3699999999999903
21
-102.5
0
LINE
8
BLACK
6
CONTINUOUS
10
88.3699999999999903
20
-102.0999999999999943
11
87.9699999999999989
21
-102.5
0
LINE
8
BLACK
6
CONTINUOUS
10
90.7639999999999958
20
-78.2239999999999895
11
91.1640000000000015
21
-78.6239999999999952
0
LINE
8
BLACK
6
CONTINUOUS
10
91.1640000000000015
20
-78.2239999999999895
11
90.7639999999999958
21
-78.6239999999999952
0
LINE
8
BLACK
6
CONTINUOUS
10
90.7639999999999958
20
-111.7519999999999953
11
91.1640000000000015
21
-112.152000000000001
0
LINE
8
BLACK
6
CONTINUOUS
10
91.1640000000000015
20
-111.7519999999999953
11
90.7639999999999958
21
-112.152000000000001
0
LINE
8
BLACK
6
CONTINUOUS
10
64.0827680000000015
20
-118.1398379999999975
11
64.0827680000000015
21
-116.1398379999999975
0
LINE
8
BLACK
6
CONTINUOUS
10
64.0827680000000015
20
-116.1398379999999975
11
64.5589580000000041
21
-116.1398379999999975
0
LINE
8
BLACK
6
CONTINUOUS
10
64.5589580000000041
20
-116.1398379999999975
11
64.8446730000000002
21
-116.2350759999999923
0
LINE
8
BLACK
6
CONTINUOUS
10
64.8446730000000002
20
-116.2350759999999923
11
65.0351490000000041
21
-116.4255519999999962
0
LINE
8
BLACK
6
CONTINUOUS
10
65.0351490000000041
20
-116.4255519999999962
11
65.1303869999999989
21
-116.616028
0
LINE
8
BLACK
6
CONTINUOUS
10
65.1303869999999989
20
-116.616028
11
65.2256249999999937
21
-116.9969799999999935
0
LINE
8
BLACK
6
CONTINUOUS
10
65.2256249999999937
20
-116.9969799999999935
11
65.2256249999999937
21
-117.2826949999999897
0
LINE
8
BLACK
6
CONTINUOUS
10
65.2256249999999937
20
-117.2826949999999897
11
65.1303869999999989
21
-117.6636469999999974
0
LINE
8
BLACK
6
CONTINUOUS
10
65.1303869999999989
20
-117.6636469999999974
11
65.0351490000000041
21
-117.8541230000000013
0
LINE
8
BLACK
6
CONTINUOUS
10
65.0351490000000041
20
-117.8541230000000013
11
64.8446730000000002
21
-118.0445999999999884
0
LINE
8
BLACK
6
CONTINUOUS
10
64.8446730000000002
20
-118.0445999999999884
11
64.5589580000000041
21
-118.1398379999999975
0
LINE
8
BLACK
6
CONTINUOUS
10
64.5589580000000041
20
-118.1398379999999975
11
64.0827680000000015
21
-118.1398379999999975
0
LINE
8
BLACK
6
CONTINUOUS
10
66.0827680000000015
20
-118.1398379999999975
11
66.0827680000000015
21
-116.8065039999999897
0
LINE
8
BLACK
6
CONTINUOUS
10
66.0827680000000015
20
-117.1874569999999949
11
66.1780059999999963
21
-116.9969799999999935
0
LINE
8
BLACK
6
CONTINUOUS
10
66.1780059999999963
20
-116.9969799999999935
11
66.2732439999999912
21
-116.9017419999999987
0
LINE
8
BLACK
6
CONTINUOUS
10
66.2732439999999912
20
-116.9017419999999987
11
66.463719999999995
21
-116.8065039999999897
0
LINE
8
BLACK
6
CONTINUOUS
10
66.463719999999995
20
-116.8065039999999897
11
66.6541969999999964
21
-116.8065039999999897
0
LINE
8
BLACK
6
CONTINUOUS
10
67.3208630000000028
20
-118.1398379999999975
11
67.3208630000000028
21
-116.8065039999999897
0
LINE
8
BLACK
6
CONTINUOUS
10
67.3208630000000028
20
-116.1398379999999975
11
67.2256249999999937
21
-116.2350759999999923
0
LINE
8
BLACK
6
CONTINUOUS
10
67.2256249999999937
20
-116.2350759999999923
11
67.3208630000000028
21
-116.3303140000000013
0
LINE
8
BLACK
6
CONTINUOUS
10
67.3208630000000028
20
-116.3303140000000013
11
67.4161009999999976
21
-116.2350759999999923
0
LINE
8
BLACK
6
CONTINUOUS
10
67.4161009999999976
20
-116.2350759999999923
11
67.3208630000000028
21
-116.1398379999999975
0
LINE
8
BLACK
6
CONTINUOUS
10
67.3208630000000028
20
-116.1398379999999975
11
67.3208630000000028
21
-116.3303140000000013
0
LINE
8
BLACK
6
CONTINUOUS
10
68.5589579999999899
20
-118.1398379999999975
11
68.3684820000000002
21
-118.0445999999999884
0
LINE
8
BLACK
6
CONTINUOUS
10
68.3684820000000002
20
-118.0445999999999884
11
68.2732439999999912
21
-117.8541230000000013
0
LINE
8
BLACK
6
CONTINUOUS
10
68.2732439999999912
20
-117.8541230000000013
11
68.2732439999999912
21
-116.1398379999999975
0
LINE
8
BLACK
6
CONTINUOUS
10
69.6065770000000015
20
-118.1398379999999975
11
69.4161009999999976
21
-118.0445999999999884
0
LINE
8
BLACK
6
CONTINUOUS
10
69.4161009999999976
20
-118.0445999999999884
11
69.3208630000000028
21
-117.8541230000000013
0
LINE
8
BLACK
6
CONTINUOUS
10
69.3208630000000028
20
-117.8541230000000013
11
69.3208630000000028
21
-116.1398379999999975
0
LINE
8
BLACK
6
CONTINUOUS
10
71.8922919999999976
20
-118.1398379999999975
11
71.8922919999999976
21
-116.1398379999999975
0
LINE
8
BLACK
6
CONTINUOUS
10
71.8922919999999976
20
-116.1398379999999975
11
72.5589590000000015
21
-117.5684089999999884
0
LINE
8
BLACK
6
CONTINUOUS
10
72.5589590000000015
20
-117.5684089999999884
11
73.2256249999999937
21
-116.1398379999999975
0
LINE
8
BLACK
6
CONTINUOUS
10
73.2256249999999937
20
-116.1398379999999975
11
73.2256249999999937
21
-118.1398379999999975
0
LINE
8
BLACK
6
CONTINUOUS
10
75.0351489999999899
20
-118.1398379999999975
11
75.0351489999999899
21
-117.0922190000000001
0
LINE
8
BLACK
6
CONTINUOUS
10
75.0351489999999899
20
-117.0922190000000001
11
74.9399109999999951
21
-116.9017419999999987
0
LINE
8
BLACK
6
CONTINUOUS
10
74.9399109999999951
20
-116.9017419999999987
11
74.7494349999999912
21
-116.8065039999999897
0
LINE
8
BLACK
6
CONTINUOUS
10
74.7494349999999912
20
-116.8065039999999897
11
74.3684820000000002
21
-116.8065039999999897
0
LINE
8
BLACK
6
CONTINUOUS
10
74.3684820000000002
20
-116.8065039999999897
11
74.1780059999999963
21
-116.9017419999999987
0
LINE
8
BLACK
6
CONTINUOUS
10
75.0351489999999899
20
-118.0445999999999884
11
74.8446730000000002
21
-118.1398379999999975
0
LINE
8
BLACK
6
CONTINUOUS
10
74.8446730000000002
20
-118.1398379999999975
11
74.3684820000000002
21
-118.1398379999999975
0
LINE
8
BLACK
6
CONTINUOUS
10
74.3684820000000002
20
-118.1398379999999975
11
74.1780059999999963
21
-118.0445999999999884
0
LINE
8
BLACK
6
CONTINUOUS
10
74.1780059999999963
20
-118.0445999999999884
11
74.0827680000000015
21
-117.8541230000000013
0
LINE
8
BLACK
6
CONTINUOUS
10
74.0827680000000015
20
-117.8541230000000013
11
74.0827680000000015
21
-117.6636469999999974
0
LINE
8
BLACK
6
CONTINUOUS
10
74.0827680000000015
20
-117.6636469999999974
11
74.1780059999999963
21
-117.4731709999999936
0
LINE
8
BLACK
6
CONTINUOUS
10
74.1780059999999963
20
-117.4731709999999936
11
74.3684820000000002
21
-117.3779329999999987
0
LINE
8
BLACK
6
CONTINUOUS
10
74.3684820000000002
20
-117.3779329999999987
11
74.8446730000000002
21
-117.3779329999999987
0
LINE
8
BLACK
6
CONTINUOUS
10
74.8446730000000002
20
-117.3779329999999987
11
75.0351489999999899
21
-117.2826949999999897
0
LINE
8
BLACK
6
CONTINUOUS
10
75.9875299999999925
20
-116.8065039999999897
11
75.9875299999999925
21
-118.8065039999999897
0
LINE
8
BLACK
6
CONTINUOUS
10
75.9875299999999925
20
-116.9017419999999987
11
76.1780059999999963
21
-116.8065039999999897
0
LINE
8
BLACK
6
CONTINUOUS
10
76.1780059999999963
20
-116.8065039999999897
11
76.5589590000000015
21
-116.8065039999999897
0
LINE
8
BLACK
6
CONTINUOUS
10
76.5589590000000015
20
-116.8065039999999897
11
76.7494349999999912
21
-116.9017419999999987
0
LINE
8
BLACK
6
CONTINUOUS
10
76.7494349999999912
20
-116.9017419999999987
11
76.8446730000000002
21
-116.9969799999999935
0
LINE
8
BLACK
6
CONTINUOUS
10
76.8446730000000002
20
-116.9969799999999935
11
76.9399109999999951
21
-117.1874569999999949
0
LINE
8
BLACK
6
CONTINUOUS
10
76.9399109999999951
20
-117.1874569999999949
11
76.9399109999999951
21
-117.7588849999999923
0
LINE
8
BLACK
6
CONTINUOUS
10
76.9399109999999951
20
-117.7588849999999923
11
76.8446730000000002
21
-117.9493609999999961
0
LINE
8
BLACK
6
CONTINUOUS
10
76.8446730000000002
20
-117.9493609999999961
11
76.7494349999999912
21
-118.0445999999999884
0
LINE
8
BLACK
6
CONTINUOUS
10
76.7494349999999912
20
-118.0445999999999884
11
76.5589590000000015
21
-118.1398379999999975
0
LINE
8
BLACK
6
CONTINUOUS
10
76.5589590000000015
20
-118.1398379999999975
11
76.1780059999999963
21
-118.1398379999999975
0
LINE
8
BLACK
6
CONTINUOUS
10
76.1780059999999963
20
-118.1398379999999975
11
75.9875299999999925
21
-118.0445999999999884
0
LINE
8
BLACK
6
CONTINUOUS
10
77.7970540000000028
20
-117.9493609999999961
11
77.8922919999999976
21
-118.0445999999999884
0
LINE
8
BLACK
6
CONTINUOUS
10
77.8922919999999976
20
-118.0445999999999884
11
77.7970540000000028
21
-118.1398379999999975
0
LINE
8
BLACK
6
CONTINUOUS
10
77.7970540000000028
20
-118.1398379999999975
11
77.7018159999999938
21
-118.0445999999999884
0
LINE
8
BLACK
6
CONTINUOUS
10
77.7018159999999938
20
-118.0445999999999884
11
77.7970540000000028
21
-117.9493609999999961
0
LINE
8
BLACK
6
CONTINUOUS
10
77.7970540000000028
20
-117.9493609999999961
11
77.7970540000000028
21
-118.1398379999999975
0
LINE
8
BLACK
6
CONTINUOUS
10
77.7970540000000028
20
-116.9017419999999987
11
77.8922919999999976
21
-116.9969799999999935
0
LINE
8
BLACK
6
CONTINUOUS
10
77.8922919999999976
20
-116.9969799999999935
11
77.7970540000000028
21
-117.0922190000000001
0
LINE
8
BLACK
6
CONTINUOUS
10
77.7970540000000028
20
-117.0922190000000001
11
77.7018159999999938
21
-116.9969799999999935
0
LINE
8
BLACK
6
CONTINUOUS
10
77.7018159999999938
20
-116.9969799999999935
11
77.7970540000000028
21
-116.9017419999999987
0
LINE
8
BLACK
6
CONTINUOUS
10
77.7970540000000028
20
-116.9017419999999987
11
77.7970540000000028
21
-117.0922190000000001
0
LINE
8
BLACK
6
CONTINUOUS
10
61.0749999999999957
20
-121.2249999999999943
11
61.4749999999999943
21
-121.625
0
LINE
8
BLACK
6
CONTINUOUS
10
61.4749999999999943
20
-121.2249999999999943
11
61.0749999999999957
21
-121.625
0
LINE
8
BLACK
6
CONTINUOUS
10
64.463719999999995
20
-120.3398380000000003
11
64.6541969999999964
21
-120.3398380000000003
0
LINE
8
BLACK
6
CONTINUOUS
10
64.6541969999999964
20
-120.3398380000000003
11
64.8446730000000002
21
-120.4350759999999951
0
LINE
8
BLACK
6
CONTINUOUS
10
64.8446730000000002
20
-120.4350759999999951
11
64.9399109999999951
21
-120.53031399999999
0
LINE
8
BLACK
6
CONTINUOUS
10
64.9399109999999951
20
-120.53031399999999
11
65.0351490000000041
21
-120.7207899999999938
0
LINE
8
BLACK
6
CONTINUOUS
10
65.0351490000000041
20
-120.7207899999999938
11
65.1303869999999989
21
-121.1017420000000016
0
LINE
8
BLACK
6
CONTINUOUS
10
65.1303869999999989
20
-121.1017420000000016
11
65.1303869999999989
21
-121.5779330000000016
0
LINE
8
BLACK
6
CONTINUOUS
10
65.1303869999999989
20
-121.5779330000000016
11
65.0351490000000041
21
-121.9588849999999951
0
LINE
8
BLACK
6
CONTINUOUS
10
65.0351490000000041
20
-121.9588849999999951
11
64.9399109999999951
21
-122.149360999999999
0
LINE
8
BLACK
6
CONTINUOUS
10
64.9399109999999951
20
-122.149360999999999
11
64.8446730000000002
21
-122.2445999999999913
0
LINE
8
BLACK
6
CONTINUOUS
10
64.8446730000000002
20
-122.2445999999999913
11
64.6541969999999964
21
-122.3398380000000003
0
LINE
8
BLACK
6
CONTINUOUS
10
64.6541969999999964
20
-122.3398380000000003
11
64.463719999999995
21
-122.3398380000000003
0
LINE
8
BLACK
6
CONTINUOUS
10
64.463719999999995
20
-122.3398380000000003
11
64.2732439999999912
21
-122.2445999999999913
0
LINE
8
BLACK
6
CONTINUOUS
10
64.2732439999999912
20
-122.2445999999999913
11
64.1780059999999963
21
-122.149360999999999
0
LINE
8
BLACK
6
CONTINUOUS
10
64.1780059999999963
20
-122.149360999999999
11
64.0827680000000015
21
-121.9588849999999951
0
LINE
8
BLACK
6
CONTINUOUS
10
64.0827680000000015
20
-121.9588849999999951
11
63.9875299999999996
21
-121.5779330000000016
0
LINE
8
BLACK
6
CONTINUOUS
10
63.9875299999999996
20
-121.5779330000000016
11
63.9875299999999996
21
-121.1017420000000016
0
LINE
8
BLACK
6
CONTINUOUS
10
63.9875299999999996
20
-121.1017420000000016
11
64.0827680000000015
21
-120.7207899999999938
0
LINE
8
BLACK
6
CONTINUOUS
10
64.0827680000000015
20
-120.7207899999999938
11
64.1780059999999963
21
-120.53031399999999
0
LINE
8
BLACK
6
CONTINUOUS
10
64.1780059999999963
20
-120.53031399999999
11
64.2732439999999912
21
-120.4350759999999951
0
LINE
8
BLACK
6
CONTINUOUS
10
64.2732439999999912
20
-120.4350759999999951
11
64.463719999999995
21
-120.3398380000000003
0
LINE
8
BLACK
6
CONTINUOUS
10
65.9875299999999925
20
-122.149360999999999
11
66.0827680000000015
21
-122.2445999999999913
0
LINE
8
BLACK
6
CONTINUOUS
10
66.0827680000000015
20
-122.2445999999999913
11
65.9875299999999925
21
-122.3398380000000003
0
LINE
8
BLACK
6
CONTINUOUS
10
65.9875299999999925
20
-122.3398380000000003
11
65.8922919999999976
21
-122.2445999999999913
0
LINE
8
BLACK
6
CONTINUOUS
10
65.8922919999999976
20
-122.2445999999999913
11
65.9875299999999925
21
-122.149360999999999
0
LINE
8
BLACK
6
CONTINUOUS
10
65.9875299999999925
20
-122.149360999999999
11
65.9875299999999925
21
-122.3398380000000003
0
LINE
8
BLACK
6
CONTINUOUS
10
67.7970540000000028
20
-121.0065039999999925
11
67.7970540000000028
21
-122.3398380000000003
0
LINE
8
BLACK
6
CONTINUOUS
10
67.3208630000000028
20
-120.2445999999999913
11
66.8446730000000002
21
-121.6731709999999964
0
LINE
8
BLACK
6
CONTINUOUS
10
66.8446730000000002
20
-121.6731709999999964
11
68.0827680000000015
21
-121.6731709999999964
0
LINE
8
BLACK
6
CONTINUOUS
10
69.2256249999999937
20
-120.3398380000000003
11
69.4161019999999951
21
-120.3398380000000003
0
LINE
8
BLACK
6
CONTINUOUS
10
69.4161019999999951
20
-120.3398380000000003
11
69.606577999999999
21
-120.4350759999999951
0
LINE
8
BLACK
6
CONTINUOUS
10
69.606577999999999
20
-120.4350759999999951
11
69.7018159999999938
21
-120.53031399999999
0
LINE
8
BLACK
6
CONTINUOUS
10
69.7018159999999938
20
-120.53031399999999
11
69.7970540000000028
21
-120.7207899999999938
0
LINE
8
BLACK
6
CONTINUOUS
10
69.7970540000000028
20
-120.7207899999999938
11
69.8922919999999976
21
-121.1017420000000016
0
LINE
8
BLACK
6
CONTINUOUS
10
69.8922919999999976
20
-121.1017420000000016
11
69.8922919999999976
21
-121.5779330000000016
0
LINE
8
BLACK
6
CONTINUOUS
10
69.8922919999999976
20
-121.5779330000000016
11
69.7970540000000028
21
-121.9588849999999951
0
LINE
8
BLACK
6
CONTINUOUS
10
69.7970540000000028
20
-121.9588849999999951
11
69.7018159999999938
21
-122.149360999999999
0
LINE
8
BLACK
6
CONTINUOUS
10
69.7018159999999938
20
-122.149360999999999
11
69.606577999999999
21
-122.2445999999999913
0
LINE
8
BLACK
6
CONTINUOUS
10
69.606577999999999
20
-122.2445999999999913
11
69.4161019999999951
21
-122.3398380000000003
0
LINE
8
BLACK
6
CONTINUOUS
10
69.4161019999999951
20
-122.3398380000000003
11
69.2256249999999937
21
-122.3398380000000003
0
LINE
8
BLACK
6
CONTINUOUS
10
69.2256249999999937
20
-122.3398380000000003
11
69.0351489999999899
21
-122.2445999999999913
0
LINE
8
BLACK
6
CONTINUOUS
10
69.0351489999999899
20
-122.2445999999999913
11
68.9399109999999951
21
-122.149360999999999
0
LINE
8
BLACK
6
CONTINUOUS
10
68.9399109999999951
20
-122.149360999999999
11
68.8446730000000002
21
-121.9588849999999951
0
LINE
8
BLACK
6
CONTINUOUS
10
68.8446730000000002
20
-121.9588849999999951
11
68.7494349999999912
21
-121.5779330000000016
0
LINE
8
BLACK
6
CONTINUOUS
10
68.7494349999999912
20
-121.5779330000000016
11
68.7494349999999912
21
-121.1017420000000016
0
LINE
8
BLACK
6
CONTINUOUS
10
68.7494349999999912
20
-121.1017420000000016
11
68.8446730000000002
21
-120.7207899999999938
0
LINE
8
BLACK
6
CONTINUOUS
10
68.8446730000000002
20
-120.7207899999999938
11
68.9399109999999951
21
-120.53031399999999
0
LINE
8
BLACK
6
CONTINUOUS
10
68.9399109999999951
20
-120.53031399999999
11
69.0351489999999899
21
-120.4350759999999951
0
LINE
8
BLACK
6
CONTINUOUS
10
69.0351489999999899
20
-120.4350759999999951
11
69.2256249999999937
21
-120.3398380000000003
0
LINE
8
BLACK
6
CONTINUOUS
10
71.1303869999999989
20
-120.3398380000000003
11
71.3208640000000003
21
-120.3398380000000003
0
LINE
8
BLACK
6
CONTINUOUS
10
71.3208640000000003
20
-120.3398380000000003
11
71.5113399999999899
21
-120.4350759999999951
0
LINE
8
BLACK
6
CONTINUOUS
10
71.5113399999999899
20
-120.4350759999999951
11
71.606577999999999
21
-120.53031399999999
0
LINE
8
BLACK
6
CONTINUOUS
10
71.606577999999999
20
-120.53031399999999
11
71.7018159999999938
21
-120.7207899999999938
0
LINE
8
BLACK
6
CONTINUOUS
10
71.7018159999999938
20
-120.7207899999999938
11
71.7970540000000028
21
-121.1017420000000016
0
LINE
8
BLACK
6
CONTINUOUS
10
71.7970540000000028
20
-121.1017420000000016
11
71.7970540000000028
21
-121.5779330000000016
0
LINE
8
BLACK
6
CONTINUOUS
10
71.7970540000000028
20
-121.5779330000000016
11
71.7018159999999938
21
-121.9588849999999951
0
LINE
8
BLACK
6
CONTINUOUS
10
71.7018159999999938
20
-121.9588849999999951
11
71.606577999999999
21
-122.149360999999999
0
LINE
8
BLACK
6
CONTINUOUS
10
71.606577999999999
20
-122.149360999999999
11
71.5113399999999899
21
-122.2445999999999913
0
LINE
8
BLACK
6
CONTINUOUS
10
71.5113399999999899
20
-122.2445999999999913
11
71.3208640000000003
21
-122.3398380000000003
0
LINE
8
BLACK
6
CONTINUOUS
10
71.3208640000000003
20
-122.3398380000000003
11
71.1303869999999989
21
-122.3398380000000003
0
LINE
8
BLACK
6
CONTINUOUS
10
71.1303869999999989
20
-122.3398380000000003
11
70.9399109999999951
21
-122.2445999999999913
0
LINE
8
BLACK
6
CONTINUOUS
10
70.9399109999999951
20
-122.2445999999999913
11
70.8446730000000002
21
-122.149360999999999
0
LINE
8
BLACK
6
CONTINUOUS
10
70.8446730000000002
20
-122.149360999999999
11
70.7494349999999912
21
-121.9588849999999951
0
LINE
8
BLACK
6
CONTINUOUS
10
70.7494349999999912
20
-121.9588849999999951
11
70.6541969999999964
21
-121.5779330000000016
0
LINE
8
BLACK
6
CONTINUOUS
10
70.6541969999999964
20
-121.5779330000000016
11
70.6541969999999964
21
-121.1017420000000016
0
LINE
8
BLACK
6
CONTINUOUS
10
70.6541969999999964
20
-121.1017420000000016
11
70.7494349999999912
21
-120.7207899999999938
0
LINE
8
BLACK
6
CONTINUOUS
10
70.7494349999999912
20
-120.7207899999999938
11
70.8446730000000002
21
-120.53031399999999
0
LINE
8
BLACK
6
CONTINUOUS
10
70.8446730000000002
20
-120.53031399999999
11
70.9399109999999951
21
-120.4350759999999951
0
LINE
8
BLACK
6
CONTINUOUS
10
70.9399109999999951
20
-120.4350759999999951
11
71.1303869999999989
21
-120.3398380000000003
0
LINE
8
BLACK
6
CONTINUOUS
10
72.6541969999999964
20
-122.3398380000000003
11
72.6541969999999964
21
-121.0065039999999925
0
LINE
8
BLACK
6
CONTINUOUS
10
72.6541969999999964
20
-121.1969799999999964
11
72.7494349999999912
21
-121.1017420000000016
0
LINE
8
BLACK
6
CONTINUOUS
10
72.7494349999999912
20
-121.1017420000000016
11
72.9399109999999951
21
-121.0065039999999925
0
LINE
8
BLACK
6
CONTINUOUS
10
72.9399109999999951
20
-121.0065039999999925
11
73.2256259999999912
21
-121.0065039999999925
0
LINE
8
BLACK
6
CONTINUOUS
10
73.2256259999999912
20
-121.0065039999999925
11
73.4161019999999951
21
-121.1017420000000016
0
LINE
8
BLACK
6
CONTINUOUS
10
73.4161019999999951
20
-121.1017420000000016
11
73.5113399999999899
21
-121.2922189999999887
0
LINE
8
BLACK
6
CONTINUOUS
10
73.5113399999999899
20
-121.2922189999999887
11
73.5113399999999899
21
-122.3398380000000003
0
LINE
8
BLACK
6
CONTINUOUS
10
73.5113399999999899
20
-121.2922189999999887
11
73.606577999999999
21
-121.1017420000000016
0
LINE
8
BLACK
6
CONTINUOUS
10
73.606577999999999
20
-121.1017420000000016
11
73.7970540000000028
21
-121.0065039999999925
0
LINE
8
BLACK
6
CONTINUOUS
10
73.7970540000000028
20
-121.0065039999999925
11
74.0827680000000015
21
-121.0065039999999925
0
LINE
8
BLACK
6
CONTINUOUS
10
74.0827680000000015
20
-121.0065039999999925
11
74.2732450000000028
21
-121.1017420000000016
0
LINE
8
BLACK
6
CONTINUOUS
10
74.2732450000000028
20
-121.1017420000000016
11
74.3684829999999977
21
-121.2922189999999887
0
LINE
8
BLACK
6
CONTINUOUS
10
74.3684829999999977
20
-121.2922189999999887
11
74.3684829999999977
21
-122.3398380000000003
0
LINE
8
BLACK
6
CONTINUOUS
10
75.3208640000000003
20
-122.3398380000000003
11
75.3208640000000003
21
-121.0065039999999925
0
LINE
8
BLACK
6
CONTINUOUS
10
75.3208640000000003
20
-121.1969799999999964
11
75.4161019999999951
21
-121.1017420000000016
0
LINE
8
BLACK
6
CONTINUOUS
10
75.4161019999999951
20
-121.1017420000000016
11
75.606577999999999
21
-121.0065039999999925
0
LINE
8
BLACK
6
CONTINUOUS
10
75.606577999999999
20
-121.0065039999999925
11
75.8922929999999951
21
-121.0065039999999925
0
LINE
8
BLACK
6
CONTINUOUS
10
75.8922929999999951
20
-121.0065039999999925
11
76.082768999999999
21
-121.1017420000000016
0
LINE
8
BLACK
6
CONTINUOUS
10
76.082768999999999
20
-121.1017420000000016
11
76.1780069999999938
21
-121.2922189999999887
0
LINE
8
BLACK
6
CONTINUOUS
10
76.1780069999999938
20
-121.2922189999999887
11
76.1780069999999938
21
-122.3398380000000003
0
LINE
8
BLACK
6
CONTINUOUS
10
76.1780069999999938
20
-121.2922189999999887
11
76.2732450000000028
21
-121.1017420000000016
0
LINE
8
BLACK
6
CONTINUOUS
10
76.2732450000000028
20
-121.1017420000000016
11
76.4637209999999925
21
-121.0065039999999925
0
LINE
8
BLACK
6
CONTINUOUS
10
76.4637209999999925
20
-121.0065039999999925
11
76.7494349999999912
21
-121.0065039999999925
0
LINE
8
BLACK
6
CONTINUOUS
10
76.7494349999999912
20
-121.0065039999999925
11
76.9399119999999925
21
-121.1017420000000016
0
LINE
8
BLACK
6
CONTINUOUS
10
76.9399119999999925
20
-121.1017420000000016
11
77.0351500000000016
21
-121.2922189999999887
0
LINE
8
BLACK
6
CONTINUOUS
10
77.0351500000000016
20
-121.2922189999999887
11
77.0351500000000016
21
-122.3398380000000003
0
LINE
8
BLACK
6
CONTINUOUS
10
80.9399119999999925
20
-120.2445999999999913
11
79.2256270000000029
21
-122.8160279999999887
0
LINE
8
BLACK
6
CONTINUOUS
10
83.5113410000000016
20
-120.3398380000000003
11
83.7018180000000029
21
-120.3398380000000003
0
LINE
8
BLACK
6
CONTINUOUS
10
83.7018180000000029
20
-120.3398380000000003
11
83.8922939999999926
21
-120.4350759999999951
0
LINE
8
BLACK
6
CONTINUOUS
10
83.8922939999999926
20
-120.4350759999999951
11
83.9875320000000016
21
-120.53031399999999
0
LINE
8
BLACK
6
CONTINUOUS
10
83.9875320000000016
20
-120.53031399999999
11
84.0827699999999965
21
-120.7207899999999938
0
LINE
8
BLACK
6
CONTINUOUS
10
84.0827699999999965
20
-120.7207899999999938
11
84.1780079999999913
21
-121.1017420000000016
0
LINE
8
BLACK
6
CONTINUOUS
10
84.1780079999999913
20
-121.1017420000000016
11
84.1780079999999913
21
-121.5779330000000016
0
LINE
8
BLACK
6
CONTINUOUS
10
84.1780079999999913
20
-121.5779330000000016
11
84.0827699999999965
21
-121.9588849999999951
0
LINE
8
BLACK
6
CONTINUOUS
10
84.0827699999999965
20
-121.9588849999999951
11
83.9875320000000016
21
-122.149360999999999
0
LINE
8
BLACK
6
CONTINUOUS
10
83.9875320000000016
20
-122.149360999999999
11
83.8922939999999926
21
-122.2445999999999913
0
LINE
8
BLACK
6
CONTINUOUS
10
83.8922939999999926
20
-122.2445999999999913
11
83.7018180000000029
21
-122.3398380000000003
0
LINE
8
BLACK
6
CONTINUOUS
10
83.7018180000000029
20
-122.3398380000000003
11
83.5113410000000016
21
-122.3398380000000003
0
LINE
8
BLACK
6
CONTINUOUS
10
83.5113410000000016
20
-122.3398380000000003
11
83.3208649999999977
21
-122.2445999999999913
0
LINE
8
BLACK
6
CONTINUOUS
10
83.3208649999999977
20
-122.2445999999999913
11
83.2256270000000029
21
-122.149360999999999
0
LINE
8
BLACK
6
CONTINUOUS
10
83.2256270000000029
20
-122.149360999999999
11
83.1303889999999939
21
-121.9588849999999951
0
LINE
8
BLACK
6
CONTINUOUS
10
83.1303889999999939
20
-121.9588849999999951
11
83.035150999999999
21
-121.5779330000000016
0
LINE
8
BLACK
6
CONTINUOUS
10
83.035150999999999
20
-121.5779330000000016
11
83.035150999999999
21
-121.1017420000000016
0
LINE
8
BLACK
6
CONTINUOUS
10
83.035150999999999
20
-121.1017420000000016
11
83.1303889999999939
21
-120.7207899999999938
0
LINE
8
BLACK
6
CONTINUOUS
10
83.1303889999999939
20
-120.7207899999999938
11
83.2256270000000029
21
-120.53031399999999
0
LINE
8
BLACK
6
CONTINUOUS
10
83.2256270000000029
20
-120.53031399999999
11
83.3208649999999977
21
-120.4350759999999951
0
LINE
8
BLACK
6
CONTINUOUS
10
83.3208649999999977
20
-120.4350759999999951
11
83.5113410000000016
21
-120.3398380000000003
0
LINE
8
BLACK
6
CONTINUOUS
10
85.035150999999999
20
-122.149360999999999
11
85.1303889999999939
21
-122.2445999999999913
0
LINE
8
BLACK
6
CONTINUOUS
10
85.1303889999999939
20
-122.2445999999999913
11
85.035150999999999
21
-122.3398380000000003
0
LINE
8
BLACK
6
CONTINUOUS
10
85.035150999999999
20
-122.3398380000000003
11
84.93991299999999
21
-122.2445999999999913
0
LINE
8
BLACK
6
CONTINUOUS
10
84.93991299999999
20
-122.2445999999999913
11
85.035150999999999
21
-122.149360999999999
0
LINE
8
BLACK
6
CONTINUOUS
10
85.035150999999999
20
-122.149360999999999
11
85.035150999999999
21
-122.3398380000000003
0
LINE
8
BLACK
6
CONTINUOUS
10
86.3684839999999951
20
-120.3398380000000003
11
86.5589609999999965
21
-120.3398380000000003
0
LINE
8
BLACK
6
CONTINUOUS
10
86.5589609999999965
20
-120.3398380000000003
11
86.7494370000000004
21
-120.4350759999999951
0
LINE
8
BLACK
6
CONTINUOUS
10
86.7494370000000004
20
-120.4350759999999951
11
86.8446749999999952
21
-120.53031399999999
0
LINE
8
BLACK
6
CONTINUOUS
10
86.8446749999999952
20
-120.53031399999999
11
86.93991299999999
21
-120.7207899999999938
0
LINE
8
BLACK
6
CONTINUOUS
10
86.93991299999999
20
-120.7207899999999938
11
87.035150999999999
21
-121.1017420000000016
0
LINE
8
BLACK
6
CONTINUOUS
10
87.035150999999999
20
-121.1017420000000016
11
87.035150999999999
21
-121.5779330000000016
0
LINE
8
BLACK
6
CONTINUOUS
10
87.035150999999999
20
-121.5779330000000016
11
86.93991299999999
21
-121.9588849999999951
0
LINE
8
BLACK
6
CONTINUOUS
10
86.93991299999999
20
-121.9588849999999951
11
86.8446749999999952
21
-122.149360999999999
0
LINE
8
BLACK
6
CONTINUOUS
10
86.8446749999999952
20
-122.149360999999999
11
86.7494370000000004
21
-122.2445999999999913
0
LINE
8
BLACK
6
CONTINUOUS
10
86.7494370000000004
20
-122.2445999999999913
11
86.5589609999999965
21
-122.3398380000000003
0
LINE
8
BLACK
6
CONTINUOUS
10
86.5589609999999965
20
-122.3398380000000003
11
86.3684839999999951
21
-122.3398380000000003
0
LINE
8
BLACK
6
CONTINUOUS
10
86.3684839999999951
20
-122.3398380000000003
11
86.1780079999999913
21
-122.2445999999999913
0
LINE
8
BLACK
6
CONTINUOUS
10
86.1780079999999913
20
-122.2445999999999913
11
86.0827699999999965
21
-122.149360999999999
0
LINE
8
BLACK
6
CONTINUOUS
10
86.0827699999999965
20
-122.149360999999999
11
85.9875320000000016
21
-121.9588849999999951
0
LINE
8
BLACK
6
CONTINUOUS
10
85.9875320000000016
20
-121.9588849999999951
11
85.8922939999999926
21
-121.5779330000000016
0
LINE
8
BLACK
6
CONTINUOUS
10
85.8922939999999926
20
-121.5779330000000016
11
85.8922939999999926
21
-121.1017420000000016
0
LINE
8
BLACK
6
CONTINUOUS
10
85.8922939999999926
20
-121.1017420000000016
11
85.9875320000000016
21
-120.7207899999999938
0
LINE
8
BLACK
6
CONTINUOUS
10
85.9875320000000016
20
-120.7207899999999938
11
86.0827699999999965
21
-120.53031399999999
0
LINE
8
BLACK
6
CONTINUOUS
10
86.0827699999999965
20
-120.53031399999999
11
86.1780079999999913
21
-120.4350759999999951
0
LINE
8
BLACK
6
CONTINUOUS
10
86.1780079999999913
20
-120.4350759999999951
11
86.3684839999999951
21
-120.3398380000000003
0
LINE
8
BLACK
6
CONTINUOUS
10
88.93991299999999
20
-122.3398380000000003
11
87.7970559999999978
21
-122.3398380000000003
0
LINE
8
BLACK
6
CONTINUOUS
10
88.3684839999999951
20
-122.3398380000000003
11
88.3684839999999951
21
-120.3398380000000003
0
LINE
8
BLACK
6
CONTINUOUS
10
88.3684839999999951
20
-120.3398380000000003
11
88.1780079999999913
21
-120.625551999999999
0
LINE
8
BLACK
6
CONTINUOUS
10
88.1780079999999913
20
-120.625551999999999
11
87.9875320000000016
21
-120.8160279999999887
0
LINE
8
BLACK
6
CONTINUOUS
10
87.9875320000000016
20
-120.8160279999999887
11
87.7970559999999978
21
-120.9112659999999977
0
LINE
8
BLACK
6
CONTINUOUS
10
90.7494370000000004
20
-120.3398380000000003
11
89.7970559999999978
21
-120.3398380000000003
0
LINE
8
BLACK
6
CONTINUOUS
10
89.7970559999999978
20
-120.3398380000000003
11
89.7018180000000029
21
-121.2922189999999887
0
LINE
8
BLACK
6
CONTINUOUS
10
89.7018180000000029
20
-121.2922189999999887
11
89.7970559999999978
21
-121.1969799999999964
0
LINE
8
BLACK
6
CONTINUOUS
10
89.7970559999999978
20
-121.1969799999999964
11
89.9875320000000016
21
-121.1017420000000016
0
LINE
8
BLACK
6
CONTINUOUS
10
89.9875320000000016
20
-121.1017420000000016
11
90.4637230000000017
21
-121.1017420000000016
0
LINE
8
BLACK
6
CONTINUOUS
10
90.4637230000000017
20
-121.1017420000000016
11
90.6541989999999913
21
-121.1969799999999964
0
LINE
8
BLACK
6
CONTINUOUS
10
90.6541989999999913
20
-121.1969799999999964
11
90.7494370000000004
21
-121.2922189999999887
0
LINE
8
BLACK
6
CONTINUOUS
10
90.7494370000000004
20
-121.2922189999999887
11
90.8446749999999952
21
-121.4826949999999925
0
LINE
8
BLACK
6
CONTINUOUS
10
90.8446749999999952
20
-121.4826949999999925
11
90.8446749999999952
21
-121.9588849999999951
0
LINE
8
BLACK
6
CONTINUOUS
10
90.8446749999999952
20
-121.9588849999999951
11
90.7494370000000004
21
-122.149360999999999
0
LINE
8
BLACK
6
CONTINUOUS
10
90.7494370000000004
20
-122.149360999999999
11
90.6541989999999913
21
-122.2445999999999913
0
LINE
8
BLACK
6
CONTINUOUS
10
90.6541989999999913
20
-122.2445999999999913
11
90.4637230000000017
21
-122.3398380000000003
0
LINE
8
BLACK
6
CONTINUOUS
10
90.4637230000000017
20
-122.3398380000000003
11
89.9875320000000016
21
-122.3398380000000003
0
LINE
8
BLACK
6
CONTINUOUS
10
89.9875320000000016
20
-122.3398380000000003
11
89.7970559999999978
21
-122.2445999999999913
0
LINE
8
BLACK
6
CONTINUOUS
10
89.7970559999999978
20
-122.2445999999999913
11
89.7018180000000029
21
-122.149360999999999
0
LINE
8
BLACK
6
CONTINUOUS
10
91.5113419999999991
20
-120.3398380000000003
11
92.8446749999999952
21
-120.3398380000000003
0
LINE
8
BLACK
6
CONTINUOUS
10
92.8446749999999952
20
-120.3398380000000003
11
91.9875320000000016
21
-122.3398380000000003
0
LINE
8
BLACK
6
CONTINUOUS
10
93.5113419999999991
20
-120.3398380000000003
11
93.5113419999999991
21
-120.7207899999999938
0
LINE
8
BLACK
6
CONTINUOUS
10
94.2732469999999978
20
-120.3398380000000003
11
94.2732469999999978
21
-120.7207899999999938
0
LINE
8
BLACK
6
CONTINUOUS
10
97.2256289999999979
20
-123.1017419999999873
11
97.1303899999999913
21
-123.0065039999999925
0
LINE
8
BLACK
6
CONTINUOUS
10
97.1303899999999913
20
-123.0065039999999925
11
96.9399140000000017
21
-122.7207899999999938
0
LINE
8
BLACK
6
CONTINUOUS
10
96.9399140000000017
20
-122.7207899999999938
11
96.8446759999999927
21
-122.53031399999999
0
LINE
8
BLACK
6
CONTINUOUS
10
96.8446759999999927
20
-122.53031399999999
11
96.7494379999999978
21
-122.2445999999999913
0
LINE
8
BLACK
6
CONTINUOUS
10
96.7494379999999978
20
-122.2445999999999913
11
96.6541999999999888
21
-121.7684089999999912
0
LINE
8
BLACK
6
CONTINUOUS
10
96.6541999999999888
20
-121.7684089999999912
11
96.6541999999999888
21
-121.3874569999999977
0
LINE
8
BLACK
6
CONTINUOUS
10
96.6541999999999888
20
-121.3874569999999977
11
96.7494379999999978
21
-120.9112659999999977
0
LINE
8
BLACK
6
CONTINUOUS
10
96.7494379999999978
20
-120.9112659999999977
11
96.8446759999999927
21
-120.625551999999999
0
LINE
8
BLACK
6
CONTINUOUS
10
96.8446759999999927
20
-120.625551999999999
11
96.9399140000000017
21
-120.4350759999999951
0
LINE
8
BLACK
6
CONTINUOUS
10
96.9399140000000017
20
-120.4350759999999951
11
97.1303899999999913
21
-120.149360999999999
0
LINE
8
BLACK
6
CONTINUOUS
10
97.1303899999999913
20
-120.149360999999999
11
97.2256289999999979
21
-120.0541229999999899
0
LINE
8
BLACK
6
CONTINUOUS
10
99.0351519999999965
20
-122.3398380000000003
11
97.8922949999999901
21
-122.3398380000000003
0
LINE
8
BLACK
6
CONTINUOUS
10
98.4637230000000017
20
-122.3398380000000003
11
98.4637230000000017
21
-120.3398380000000003
0
LINE
8
BLACK
6
CONTINUOUS
10
98.4637230000000017
20
-120.3398380000000003
11
98.2732469999999978
21
-120.625551999999999
0
LINE
8
BLACK
6
CONTINUOUS
10
98.2732469999999978
20
-120.625551999999999
11
98.0827709999999939
21
-120.8160279999999887
0
LINE
8
BLACK
6
CONTINUOUS
10
98.0827709999999939
20
-120.8160279999999887
11
97.8922949999999901
21
-120.9112659999999977
0
LINE
8
BLACK
6
CONTINUOUS
10
99.7018190000000004
20
-120.3398380000000003
11
101.0351519999999965
21
-120.3398380000000003
0
LINE
8
BLACK
6
CONTINUOUS
10
101.0351519999999965
20
-120.3398380000000003
11
100.1780089999999888
21
-122.3398380000000003
0
LINE
8
BLACK
6
CONTINUOUS
10
103.3208669999999927
20
-122.3398380000000003
11
103.3208669999999927
21
-120.3398380000000003
0
LINE
8
BLACK
6
CONTINUOUS
10
104.1780100000000004
20
-122.3398380000000003
11
104.1780100000000004
21
-121.2922189999999887
0
LINE
8
BLACK
6
CONTINUOUS
10
104.1780100000000004
20
-121.2922189999999887
11
104.0827719999999914
21
-121.1017420000000016
0
LINE
8
BLACK
6
CONTINUOUS
10
104.0827719999999914
20
-121.1017420000000016
11
103.8922960000000018
21
-121.0065039999999925
0
LINE
8
BLACK
6
CONTINUOUS
10
103.8922960000000018
20
-121.0065039999999925
11
103.6065809999999914
21
-121.0065039999999925
0
LINE
8
BLACK
6
CONTINUOUS
10
103.6065809999999914
20
-121.0065039999999925
11
103.4161050000000017
21
-121.1017420000000016
0
LINE
8
BLACK
6
CONTINUOUS
10
103.4161050000000017
20
-121.1017420000000016
11
103.3208669999999927
21
-121.1969799999999964
0
LINE
8
BLACK
6
CONTINUOUS
10
105.4161050000000017
20
-122.3398380000000003
11
105.2256289999999979
21
-122.2445999999999913
0
LINE
8
BLACK
6
CONTINUOUS
10
105.2256289999999979
20
-122.2445999999999913
11
105.1303909999999888
21
-122.149360999999999
0
LINE
8
BLACK
6
CONTINUOUS
10
105.1303909999999888
20
-122.149360999999999
11
105.035152999999994
21
-121.9588849999999951
0
LINE
8
BLACK
6
CONTINUOUS
10
105.035152999999994
20
-121.9588849999999951
11
105.035152999999994
21
-121.3874569999999977
0
LINE
8
BLACK
6
CONTINUOUS
10
105.035152999999994
20
-121.3874569999999977
11
105.1303909999999888
21
-121.1969799999999964
0
LINE
8
BLACK
6
CONTINUOUS
10
105.1303909999999888
20
-121.1969799999999964
11
105.2256289999999979
21
-121.1017420000000016
0
LINE
8
BLACK
6
CONTINUOUS
10
105.2256289999999979
20
-121.1017420000000016
11
105.4161050000000017
21
-121.0065039999999925
0
LINE
8
BLACK
6
CONTINUOUS
10
105.4161050000000017
20
-121.0065039999999925
11
105.7018199999999979
21
-121.0065039999999925
0
LINE
8
BLACK
6
CONTINUOUS
10
105.7018199999999979
20
-121.0065039999999925
11
105.8922960000000018
21
-121.1017420000000016
0
LINE
8
BLACK
6
CONTINUOUS
10
105.8922960000000018
20
-121.1017420000000016
11
105.9875339999999966
21
-121.1969799999999964
0
LINE
8
BLACK
6
CONTINUOUS
10
105.9875339999999966
20
-121.1969799999999964
11
106.0827719999999914
21
-121.3874569999999977
0
LINE
8
BLACK
6
CONTINUOUS
10
106.0827719999999914
20
-121.3874569999999977
11
106.0827719999999914
21
-121.9588849999999951
0
LINE
8
BLACK
6
CONTINUOUS
10
106.0827719999999914
20
-121.9588849999999951
11
105.9875339999999966
21
-122.149360999999999
0
LINE
8
BLACK
6
CONTINUOUS
10
105.9875339999999966
20
-122.149360999999999
11
105.8922960000000018
21
-122.2445999999999913
0
LINE
8
BLACK
6
CONTINUOUS
10
105.8922960000000018
20
-122.2445999999999913
11
105.7018199999999979
21
-122.3398380000000003
0
LINE
8
BLACK
6
CONTINUOUS
10
105.7018199999999979
20
-122.3398380000000003
11
105.4161050000000017
21
-122.3398380000000003
0
LINE
8
BLACK
6
CONTINUOUS
10
107.2256289999999979
20
-122.3398380000000003
11
107.035152999999994
21
-122.2445999999999913
0
LINE
8
BLACK
6
CONTINUOUS
10
107.035152999999994
20
-122.2445999999999913
11
106.9399149999999992
21
-122.0541229999999899
0
LINE
8
BLACK
6
CONTINUOUS
10
106.9399149999999992
20
-122.0541229999999899
11
106.9399149999999992
21
-120.3398380000000003
0
LINE
8
BLACK
6
CONTINUOUS
10
108.7494389999999953
20
-122.2445999999999913
11
108.5589629999999914
21
-122.3398380000000003
0
LINE
8
BLACK
6
CONTINUOUS
10
108.5589629999999914
20
-122.3398380000000003
11
108.1780100000000004
21
-122.3398380000000003
0
LINE
8
BLACK
6
CONTINUOUS
10
108.1780100000000004
20
-122.3398380000000003
11
107.9875339999999966
21
-122.2445999999999913
0
LINE
8
BLACK
6
CONTINUOUS
10
107.9875339999999966
20
-122.2445999999999913
11
107.8922960000000018
21
-122.0541229999999899
0
LINE
8
BLACK
6
CONTINUOUS
10
107.8922960000000018
20
-122.0541229999999899
11
107.8922960000000018
21
-121.2922189999999887
0
LINE
8
BLACK
6
CONTINUOUS
10
107.8922960000000018
20
-121.2922189999999887
11
107.9875339999999966
21
-121.1017420000000016
0
LINE
8
BLACK
6
CONTINUOUS
10
107.9875339999999966
20
-121.1017420000000016
11
108.1780100000000004
21
-121.0065039999999925
0
LINE
8
BLACK
6
CONTINUOUS
10
108.1780100000000004
20
-121.0065039999999925
11
108.5589629999999914
21
-121.0065039999999925
0
LINE
8
BLACK
6
CONTINUOUS
10
108.5589629999999914
20
-121.0065039999999925
11
108.7494389999999953
21
-121.1017420000000016
0
LINE
8
BLACK
6
CONTINUOUS
10
108.7494389999999953
20
-121.1017420000000016
11
108.8446769999999901
21
-121.2922189999999887
0
LINE
8
BLACK
6
CONTINUOUS
10
108.8446769999999901
20
-121.2922189999999887
11
108.8446769999999901
21
-121.4826949999999925
0
LINE
8
BLACK
6
CONTINUOUS
10
108.8446769999999901
20
-121.4826949999999925
11
107.8922960000000018
21
-121.6731709999999964
0
LINE
8
BLACK
6
CONTINUOUS
10
109.6065819999999889
20
-122.2445999999999913
11
109.7970579999999927
21
-122.3398380000000003
0
LINE
8
BLACK
6
CONTINUOUS
10
109.7970579999999927
20
-122.3398380000000003
11
110.1780100000000004
21
-122.3398380000000003
0
LINE
8
BLACK
6
CONTINUOUS
10
110.1780100000000004
20
-122.3398380000000003
11
110.3684870000000018
21
-122.2445999999999913
0
LINE
8
BLACK
6
CONTINUOUS
10
110.3684870000000018
20
-122.2445999999999913
11
110.4637249999999966
21
-122.0541229999999899
0
LINE
8
BLACK
6
CONTINUOUS
10
110.4637249999999966
20
-122.0541229999999899
11
110.4637249999999966
21
-121.9588849999999951
0
LINE
8
BLACK
6
CONTINUOUS
10
110.4637249999999966
20
-121.9588849999999951
11
110.3684870000000018
21
-121.7684089999999912
0
LINE
8
BLACK
6
CONTINUOUS
10
110.3684870000000018
20
-121.7684089999999912
11
110.1780100000000004
21
-121.6731709999999964
0
LINE
8
BLACK
6
CONTINUOUS
10
110.1780100000000004
20
-121.6731709999999964
11
109.8922960000000018
21
-121.6731709999999964
0
LINE
8
BLACK
6
CONTINUOUS
10
109.8922960000000018
20
-121.6731709999999964
11
109.7018199999999979
21
-121.5779330000000016
0
LINE
8
BLACK
6
CONTINUOUS
10
109.7018199999999979
20
-121.5779330000000016
11
109.6065819999999889
21
-121.3874569999999977
0
LINE
8
BLACK
6
CONTINUOUS
10
109.6065819999999889
20
-121.3874569999999977
11
109.6065819999999889
21
-121.2922189999999887
0
LINE
8
BLACK
6
CONTINUOUS
10
109.6065819999999889
20
-121.2922189999999887
11
109.7018199999999979
21
-121.1017420000000016
0
LINE
8
BLACK
6
CONTINUOUS
10
109.7018199999999979
20
-121.1017420000000016
11
109.8922960000000018
21
-121.0065039999999925
0
LINE
8
BLACK
6
CONTINUOUS
10
109.8922960000000018
20
-121.0065039999999925
11
110.1780100000000004
21
-121.0065039999999925
0
LINE
8
BLACK
6
CONTINUOUS
10
110.1780100000000004
20
-121.0065039999999925
11
110.3684870000000018
21
-121.1017420000000016
0
LINE
8
BLACK
6
CONTINUOUS
10
111.1303920000000005
20
-123.1017419999999873
11
111.2256299999999953
21
-123.0065039999999925
0
LINE
8
BLACK
6
CONTINUOUS
10
111.2256299999999953
20
-123.0065039999999925
11
111.4161059999999992
21
-122.7207899999999938
0
LINE
8
BLACK
6
CONTINUOUS
10
111.4161059999999992
20
-122.7207899999999938
11
111.511343999999994
21
-122.53031399999999
0
LINE
8
BLACK
6
CONTINUOUS
10
111.511343999999994
20
-122.53031399999999
11
111.6065819999999889
21
-122.2445999999999913
0
LINE
8
BLACK
6
CONTINUOUS
10
111.6065819999999889
20
-122.2445999999999913
11
111.7018199999999979
21
-121.7684089999999912
0
LINE
8
BLACK
6
CONTINUOUS
10
111.7018199999999979
20
-121.7684089999999912
11
111.7018199999999979
21
-121.3874569999999977
0
LINE
8
BLACK
6
CONTINUOUS
10
111.7018199999999979
20
-121.3874569999999977
11
111.6065819999999889
21
-120.9112659999999977
0
LINE
8
BLACK
6
CONTINUOUS
10
111.6065819999999889
20
-120.9112659999999977
11
111.511343999999994
21
-120.625551999999999
0
LINE
8
BLACK
6
CONTINUOUS
10
111.511343999999994
20
-120.625551999999999
11
111.4161059999999992
21
-120.4350759999999951
0
LINE
8
BLACK
6
CONTINUOUS
10
111.4161059999999992
20
-120.4350759999999951
11
111.2256299999999953
21
-120.149360999999999
0
LINE
8
BLACK
6
CONTINUOUS
10
111.2256299999999953
20
-120.149360999999999
11
111.1303920000000005
21
-120.0541229999999899
  0
ENDSEC
  0
EOF
