  0
SECTION
  2
HEADER
  9
$ANGBASE
  50
0.0
  9
$ANGDIR
  70
1
  9
$MEASUREMENT
  70
1
  0
ENDSEC
  0
SECTION
  2
TABLES
  0
TABLE
  2
LTYPE
  70
4
  0
LTYPE
  5
40F
  2
CONTINUOUS
  70
0
  3
Solid line
  72
65
  73
0
  40
0.0
  0
LTYPE
  5
410
  2
DASHDOT
 70
0
  3
Dash Dot ____ _ ____ _
 72
65
 73
4
 40
2.0
 49
1.25
 49
-0.25
 49
0.25
 49
-0.25
  0
LTYPE
  5
411
  2
DASHED
 70
0
  3
Dashed __ __ __ __ __
 72
65
 73
2
 40
0.75
 49
0.5
 49
-0.25
  0
LTYPE
  5
43B
  2
DOTTED
 70
0
  3
Dotted .  .  .  .
 72
65
 73
2
 40
0.2
 49
0.0
 49
-0.2
  0
ENDTAB
  0
TABLE
  2
STYLE
  70
4
  0
STYLE
  2
KICAD
  70
0
  40
0
  41
1
  42
1
  50
0
  71
0
  3
isocp.shx
  0
STYLE
  2
KICADB
  70
0
  40
0
  41
1
  42
1
  50
0
  71
0
  3
isocp.shx
  0
STYLE
  2
KICADI
  70
0
  40
0
  41
1
  42
1
  50
15
  71
0
  3
isocp.shx
  0
STYLE
  2
KICADBI
  70
0
  40
0
  41
1
  42
1
  50
15
  71
0
  3
isocp.shx
  0
ENDTAB
  0
TABLE
  2
LAYER
  70
1
  0
LAYER
  2
BLACK
  70
0
  62
7
  6
CONTINUOUS
  0
ENDTAB
  0
ENDSEC
  0
SECTION
  2
ENTITIES
0
LINE
8
BLACK
6
CONTINUOUS
10
0.
20
40.
11
40.
21
40.
0
LINE
8
BLACK
6
CONTINUOUS
10
40.
20
40.
11
40.
21
0.
0
LINE
8
BLACK
6
CONTINUOUS
10
40.
20
0.
11
0.
21
0.
0
LINE
8
BLACK
6
CONTINUOUS
10
0.
20
0.
11
0.
21
40.
0
LINE
8
BLACK
6
CONTINUOUS
10
2.5827679999999997
20
-3.1398379999999997
11
2.5827679999999997
21
-1.1398379999999999
0
LINE
8
BLACK
6
CONTINUOUS
10
2.5827679999999997
20
-1.1398379999999999
11
3.0589580000000001
21
-1.1398379999999999
0
LINE
8
BLACK
6
CONTINUOUS
10
3.0589580000000001
20
-1.1398379999999999
11
3.3446729999999998
21
-1.2350759999999998
0
LINE
8
BLACK
6
CONTINUOUS
10
3.3446729999999998
20
-1.2350759999999998
11
3.5351489999999997
21
-1.4255519999999999
0
LINE
8
BLACK
6
CONTINUOUS
10
3.5351489999999997
20
-1.4255519999999999
11
3.6303869999999998
21
-1.616028
0
LINE
8
BLACK
6
CONTINUOUS
10
3.6303869999999998
20
-1.616028
11
3.725625
21
-1.99698
0
LINE
8
BLACK
6
CONTINUOUS
10
3.725625
20
-1.99698
11
3.725625
21
-2.2826949999999999
0
LINE
8
BLACK
6
CONTINUOUS
10
3.725625
20
-2.2826949999999999
11
3.6303869999999998
21
-2.6636470000000001
0
LINE
8
BLACK
6
CONTINUOUS
10
3.6303869999999998
20
-2.6636470000000001
11
3.5351489999999997
21
-2.854123
0
LINE
8
BLACK
6
CONTINUOUS
10
3.5351489999999997
20
-2.854123
11
3.3446729999999998
21
-3.0446
0
LINE
8
BLACK
6
CONTINUOUS
10
3.3446729999999998
20
-3.0446
11
3.0589580000000001
21
-3.1398379999999997
0
LINE
8
BLACK
6
CONTINUOUS
10
3.0589580000000001
20
-3.1398379999999997
11
2.5827679999999997
21
-3.1398379999999997
0
LINE
8
BLACK
6
CONTINUOUS
10
4.5827679999999997
20
-3.1398379999999997
11
4.5827679999999997
21
-1.8065039999999999
0
LINE
8
BLACK
6
CONTINUOUS
10
4.5827679999999997
20
-2.1874569999999998
11
4.6780059999999999
21
-1.99698
0
LINE
8
BLACK
6
CONTINUOUS
10
4.6780059999999999
20
-1.99698
11
4.773244
21
-1.9017419999999998
0
LINE
8
BLACK
6
CONTINUOUS
10
4.773244
20
-1.9017419999999998
11
4.9637199999999995
21
-1.8065039999999999
0
LINE
8
BLACK
6
CONTINUOUS
10
4.9637199999999995
20
-1.8065039999999999
11
5.1541969999999999
21
-1.8065039999999999
0
LINE
8
BLACK
6
CONTINUOUS
10
5.8208630000000001
20
-3.1398379999999997
11
5.8208630000000001
21
-1.8065039999999999
0
LINE
8
BLACK
6
CONTINUOUS
10
5.8208630000000001
20
-1.1398379999999999
11
5.725625
21
-1.2350759999999998
0
LINE
8
BLACK
6
CONTINUOUS
10
5.725625
20
-1.2350759999999998
11
5.8208630000000001
21
-1.330314
0
LINE
8
BLACK
6
CONTINUOUS
10
5.8208630000000001
20
-1.330314
11
5.9161009999999994
21
-1.2350759999999998
0
LINE
8
BLACK
6
CONTINUOUS
10
5.9161009999999994
20
-1.2350759999999998
11
5.8208630000000001
21
-1.1398379999999999
0
LINE
8
BLACK
6
CONTINUOUS
10
5.8208630000000001
20
-1.1398379999999999
11
5.8208630000000001
21
-1.330314
0
LINE
8
BLACK
6
CONTINUOUS
10
7.0589579999999996
20
-3.1398379999999997
11
6.8684819999999993
21
-3.0446
0
LINE
8
BLACK
6
CONTINUOUS
10
6.8684819999999993
20
-3.0446
11
6.773244
21
-2.854123
0
LINE
8
BLACK
6
CONTINUOUS
10
6.773244
20
-2.854123
11
6.773244
21
-1.1398379999999999
0
LINE
8
BLACK
6
CONTINUOUS
10
8.1065769999999997
20
-3.1398379999999997
11
7.9161009999999994
21
-3.0446
0
LINE
8
BLACK
6
CONTINUOUS
10
7.9161009999999994
20
-3.0446
11
7.8208629999999992
21
-2.854123
0
LINE
8
BLACK
6
CONTINUOUS
10
7.8208629999999992
20
-2.854123
11
7.8208629999999992
21
-1.1398379999999999
0
LINE
8
BLACK
6
CONTINUOUS
10
10.3922919999999994
20
-3.1398379999999997
11
10.3922919999999994
21
-1.1398379999999999
0
LINE
8
BLACK
6
CONTINUOUS
10
10.3922919999999994
20
-1.1398379999999999
11
11.0589589999999998
21
-2.5684089999999999
0
LINE
8
BLACK
6
CONTINUOUS
10
11.0589589999999998
20
-2.5684089999999999
11
11.7256249999999991
21
-1.1398379999999999
0
LINE
8
BLACK
6
CONTINUOUS
10
11.7256249999999991
20
-1.1398379999999999
11
11.7256249999999991
21
-3.1398379999999997
0
LINE
8
BLACK
6
CONTINUOUS
10
13.5351489999999988
20
-3.1398379999999997
11
13.5351489999999988
21
-2.0922190000000001
0
LINE
8
BLACK
6
CONTINUOUS
10
13.5351489999999988
20
-2.0922190000000001
11
13.4399109999999986
21
-1.9017419999999998
0
LINE
8
BLACK
6
CONTINUOUS
10
13.4399109999999986
20
-1.9017419999999998
11
13.2494350000000001
21
-1.8065039999999999
0
LINE
8
BLACK
6
CONTINUOUS
10
13.2494350000000001
20
-1.8065039999999999
11
12.8684820000000002
21
-1.8065039999999999
0
LINE
8
BLACK
6
CONTINUOUS
10
12.8684820000000002
20
-1.8065039999999999
11
12.6780059999999999
21
-1.9017419999999998
0
LINE
8
BLACK
6
CONTINUOUS
10
13.5351489999999988
20
-3.0446
11
13.3446730000000002
21
-3.1398379999999997
0
LINE
8
BLACK
6
CONTINUOUS
10
13.3446730000000002
20
-3.1398379999999997
11
12.8684820000000002
21
-3.1398379999999997
0
LINE
8
BLACK
6
CONTINUOUS
10
12.8684820000000002
20
-3.1398379999999997
11
12.6780059999999999
21
-3.0446
0
LINE
8
BLACK
6
CONTINUOUS
10
12.6780059999999999
20
-3.0446
11
12.5827679999999997
21
-2.854123
0
LINE
8
BLACK
6
CONTINUOUS
10
12.5827679999999997
20
-2.854123
11
12.5827679999999997
21
-2.6636470000000001
0
LINE
8
BLACK
6
CONTINUOUS
10
12.5827679999999997
20
-2.6636470000000001
11
12.6780059999999999
21
-2.4731709999999998
0
LINE
8
BLACK
6
CONTINUOUS
10
12.6780059999999999
20
-2.4731709999999998
11
12.8684820000000002
21
-2.3779330000000001
0
LINE
8
BLACK
6
CONTINUOUS
10
12.8684820000000002
20
-2.3779330000000001
11
13.3446730000000002
21
-2.3779330000000001
0
LINE
8
BLACK
6
CONTINUOUS
10
13.3446730000000002
20
-2.3779330000000001
11
13.5351489999999988
21
-2.2826949999999999
0
LINE
8
BLACK
6
CONTINUOUS
10
14.4875299999999996
20
-1.8065039999999999
11
14.4875299999999996
21
-3.8065039999999999
0
LINE
8
BLACK
6
CONTINUOUS
10
14.4875299999999996
20
-1.9017419999999998
11
14.6780059999999999
21
-1.8065039999999999
0
LINE
8
BLACK
6
CONTINUOUS
10
14.6780059999999999
20
-1.8065039999999999
11
15.0589589999999998
21
-1.8065039999999999
0
LINE
8
BLACK
6
CONTINUOUS
10
15.0589589999999998
20
-1.8065039999999999
11
15.2494350000000001
21
-1.9017419999999998
0
LINE
8
BLACK
6
CONTINUOUS
10
15.2494350000000001
20
-1.9017419999999998
11
15.3446729999999985
21
-1.99698
0
LINE
8
BLACK
6
CONTINUOUS
10
15.3446729999999985
20
-1.99698
11
15.4399109999999986
21
-2.1874569999999998
0
LINE
8
BLACK
6
CONTINUOUS
10
15.4399109999999986
20
-2.1874569999999998
11
15.4399109999999986
21
-2.7588849999999998
0
LINE
8
BLACK
6
CONTINUOUS
10
15.4399109999999986
20
-2.7588849999999998
11
15.3446729999999985
21
-2.9493609999999997
0
LINE
8
BLACK
6
CONTINUOUS
10
15.3446729999999985
20
-2.9493609999999997
11
15.2494350000000001
21
-3.0446
0
LINE
8
BLACK
6
CONTINUOUS
10
15.2494350000000001
20
-3.0446
11
15.0589589999999998
21
-3.1398379999999997
0
LINE
8
BLACK
6
CONTINUOUS
10
15.0589589999999998
20
-3.1398379999999997
11
14.6780059999999999
21
-3.1398379999999997
0
LINE
8
BLACK
6
CONTINUOUS
10
14.6780059999999999
20
-3.1398379999999997
11
14.4875299999999996
21
-3.0446
0
LINE
8
BLACK
6
CONTINUOUS
10
16.2970539999999993
20
-2.9493609999999997
11
16.3922919999999976
21
-3.0446
0
LINE
8
BLACK
6
CONTINUOUS
10
16.3922919999999976
20
-3.0446
11
16.2970539999999993
21
-3.1398379999999997
0
LINE
8
BLACK
6
CONTINUOUS
10
16.2970539999999993
20
-3.1398379999999997
11
16.2018160000000009
21
-3.0446
0
LINE
8
BLACK
6
CONTINUOUS
10
16.2018160000000009
20
-3.0446
11
16.2970539999999993
21
-2.9493609999999997
0
LINE
8
BLACK
6
CONTINUOUS
10
16.2970539999999993
20
-2.9493609999999997
11
16.2970539999999993
21
-3.1398379999999997
0
LINE
8
BLACK
6
CONTINUOUS
10
16.2970539999999993
20
-1.9017419999999998
11
16.3922919999999976
21
-1.99698
0
LINE
8
BLACK
6
CONTINUOUS
10
16.3922919999999976
20
-1.99698
11
16.2970539999999993
21
-2.0922190000000001
0
LINE
8
BLACK
6
CONTINUOUS
10
16.2970539999999993
20
-2.0922190000000001
11
16.2018160000000009
21
-1.99698
0
LINE
8
BLACK
6
CONTINUOUS
10
16.2018160000000009
20
-1.99698
11
16.2970539999999993
21
-1.9017419999999998
0
LINE
8
BLACK
6
CONTINUOUS
10
16.2970539999999993
20
-1.9017419999999998
11
16.2970539999999993
21
-2.0922190000000001
  0
ENDSEC
  0
EOF
