  0
SECTION
  2
HEADER
  9
$ANGBASE
  50
0.0
  9
$ANGDIR
  70
1
  9
$MEASUREMENT
  70
1
  0
ENDSEC
  0
SECTION
  2
TABLES
  0
TABLE
  2
LTYPE
  70
4
  0
LTYPE
  5
40F
  2
CONTINUOUS
  70
0
  3
Solid line
  72
65
  73
0
  40
0.0
  0
LTYPE
  5
410
  2
DASHDOT
 70
0
  3
Dash Dot ____ _ ____ _
 72
65
 73
4
 40
2.0
 49
1.25
 49
-0.25
 49
0.25
 49
-0.25
  0
LTYPE
  5
411
  2
DASHED
 70
0
  3
Dashed __ __ __ __ __
 72
65
 73
2
 40
0.75
 49
0.5
 49
-0.25
  0
LTYPE
  5
43B
  2
DOTTED
 70
0
  3
Dotted .  .  .  .
 72
65
 73
2
 40
0.2
 49
0.0
 49
-0.2
  0
ENDTAB
  0
TABLE
  2
STYLE
  70
4
  0
STYLE
  2
KICAD
  70
0
  40
0
  41
1
  42
1
  50
0
  71
0
  3
isocp.shx
  0
STYLE
  2
KICADB
  70
0
  40
0
  41
1
  42
1
  50
0
  71
0
  3
isocp.shx
  0
STYLE
  2
KICADI
  70
0
  40
0
  41
1
  42
1
  50
15
  71
0
  3
isocp.shx
  0
STYLE
  2
KICADBI
  70
0
  40
0
  41
1
  42
1
  50
15
  71
0
  3
isocp.shx
  0
ENDTAB
  0
TABLE
  2
LAYER
  70
1
  0
LAYER
  2
BLACK
  70
0
  62
7
  6
CONTINUOUS
  0
ENDTAB
  0
ENDSEC
  0
SECTION
  2
ENTITIES
0
LINE
8
BLACK
6
CONTINUOUS
10
0.
20
40.
11
40.
21
40.
0
LINE
8
BLACK
6
CONTINUOUS
10
40.
20
40.
11
40.
21
0.
0
LINE
8
BLACK
6
CONTINUOUS
10
40.
20
0.
11
0.
21
0.
0
LINE
8
BLACK
6
CONTINUOUS
10
0.
20
0.
11
0.
21
40.
0
LINE
8
BLACK
6
CONTINUOUS
10
2.3399999999999999
20
33.7280000000000015
11
2.7399999999999998
21
33.3279999999999959
0
LINE
8
BLACK
6
CONTINUOUS
10
2.7399999999999998
20
33.7280000000000015
11
2.3399999999999999
21
33.3279999999999959
0
LINE
8
BLACK
6
CONTINUOUS
10
2.3399999999999999
20
5.2799999999999994
11
2.7399999999999998
21
4.8799999999999999
0
LINE
8
BLACK
6
CONTINUOUS
10
2.7399999999999998
20
5.2799999999999994
11
2.3399999999999999
21
4.8799999999999999
0
LINE
8
BLACK
6
CONTINUOUS
10
6.7849999999999993
20
7.1849999999999996
11
7.1849999999999996
21
6.7849999999999993
0
LINE
8
BLACK
6
CONTINUOUS
10
7.1849999999999996
20
7.1849999999999996
11
6.7849999999999993
21
6.7849999999999993
0
LINE
8
BLACK
6
CONTINUOUS
10
8.0549999999999997
20
17.3449999999999989
11
8.4550000000000001
21
16.9450000000000003
0
LINE
8
BLACK
6
CONTINUOUS
10
8.4550000000000001
20
17.3449999999999989
11
8.0549999999999997
21
16.9450000000000003
0
LINE
8
BLACK
6
CONTINUOUS
10
9.3249999999999993
20
31.3149999999999977
11
9.7249999999999996
21
30.9149999999999991
0
LINE
8
BLACK
6
CONTINUOUS
10
9.7249999999999996
20
31.3149999999999977
11
9.3249999999999993
21
30.9149999999999991
0
LINE
8
BLACK
6
CONTINUOUS
10
9.3249999999999993
20
26.8699999999999974
11
9.7249999999999996
21
26.4699999999999989
0
LINE
8
BLACK
6
CONTINUOUS
10
9.7249999999999996
20
26.8699999999999974
11
9.3249999999999993
21
26.4699999999999989
0
LINE
8
BLACK
6
CONTINUOUS
10
9.9599999999999991
20
12.8999999999999986
11
10.3599999999999994
21
12.5
0
LINE
8
BLACK
6
CONTINUOUS
10
10.3599999999999994
20
12.8999999999999986
11
9.9599999999999991
21
12.5
0
LINE
8
BLACK
6
CONTINUOUS
10
11.2299999999999986
20
24.9649999999999999
11
11.629999999999999
21
24.5649999999999977
0
LINE
8
BLACK
6
CONTINUOUS
10
11.629999999999999
20
24.9649999999999999
11
11.2299999999999986
21
24.5649999999999977
0
LINE
8
BLACK
6
CONTINUOUS
10
11.8650000000000002
20
17.3449999999999989
11
12.2649999999999988
21
16.9450000000000003
0
LINE
8
BLACK
6
CONTINUOUS
10
12.2649999999999988
20
17.3449999999999989
11
11.8650000000000002
21
16.9450000000000003
0
LINE
8
BLACK
6
CONTINUOUS
10
12.5
20
33.8549999999999969
11
12.8999999999999986
21
33.4549999999999983
0
LINE
8
BLACK
6
CONTINUOUS
10
12.8999999999999986
20
33.8549999999999969
11
12.5
21
33.4549999999999983
0
LINE
8
BLACK
6
CONTINUOUS
10
13.1349999999999998
20
26.8699999999999974
11
13.5350000000000001
21
26.4699999999999989
0
LINE
8
BLACK
6
CONTINUOUS
10
13.5350000000000001
20
26.8699999999999974
11
13.1349999999999998
21
26.4699999999999989
0
LINE
8
BLACK
6
CONTINUOUS
10
23.6759999999999984
20
36.7759999999999962
11
24.0760000000000005
21
36.3759999999999977
0
LINE
8
BLACK
6
CONTINUOUS
10
24.0760000000000005
20
36.7759999999999962
11
23.6759999999999984
21
36.3759999999999977
0
LINE
8
BLACK
6
CONTINUOUS
10
23.6759999999999984
20
3.2479999999999998
11
24.0760000000000005
21
2.8479999999999999
0
LINE
8
BLACK
6
CONTINUOUS
10
24.0760000000000005
20
3.2479999999999998
11
23.6759999999999984
21
2.8479999999999999
0
LINE
8
BLACK
6
CONTINUOUS
10
25.8349999999999973
20
17.9800000000000004
11
26.2349999999999994
21
17.5799999999999983
0
LINE
8
BLACK
6
CONTINUOUS
10
26.2349999999999994
20
17.9800000000000004
11
25.8349999999999973
21
17.5799999999999983
0
LINE
8
BLACK
6
CONTINUOUS
10
26.4699999999999989
20
12.8999999999999986
11
26.8699999999999974
21
12.5
0
LINE
8
BLACK
6
CONTINUOUS
10
26.8699999999999974
20
12.8999999999999986
11
26.4699999999999989
21
12.5
0
LINE
8
BLACK
6
CONTINUOUS
10
29.2639999999999993
20
36.7759999999999962
11
29.6639999999999979
21
36.3759999999999977
0
LINE
8
BLACK
6
CONTINUOUS
10
29.6639999999999979
20
36.7759999999999962
11
29.2639999999999993
21
36.3759999999999977
0
LINE
8
BLACK
6
CONTINUOUS
10
29.2639999999999993
20
3.2479999999999998
11
29.6639999999999979
21
2.8479999999999999
0
LINE
8
BLACK
6
CONTINUOUS
10
29.6639999999999979
20
3.2479999999999998
11
29.2639999999999993
21
2.8479999999999999
0
LINE
8
BLACK
6
CONTINUOUS
10
2.5827679999999997
20
-3.1398379999999997
11
2.5827679999999997
21
-1.1398379999999999
0
LINE
8
BLACK
6
CONTINUOUS
10
2.5827679999999997
20
-1.1398379999999999
11
3.0589580000000001
21
-1.1398379999999999
0
LINE
8
BLACK
6
CONTINUOUS
10
3.0589580000000001
20
-1.1398379999999999
11
3.3446729999999998
21
-1.2350759999999998
0
LINE
8
BLACK
6
CONTINUOUS
10
3.3446729999999998
20
-1.2350759999999998
11
3.5351489999999997
21
-1.4255519999999999
0
LINE
8
BLACK
6
CONTINUOUS
10
3.5351489999999997
20
-1.4255519999999999
11
3.6303869999999998
21
-1.616028
0
LINE
8
BLACK
6
CONTINUOUS
10
3.6303869999999998
20
-1.616028
11
3.725625
21
-1.99698
0
LINE
8
BLACK
6
CONTINUOUS
10
3.725625
20
-1.99698
11
3.725625
21
-2.2826949999999999
0
LINE
8
BLACK
6
CONTINUOUS
10
3.725625
20
-2.2826949999999999
11
3.6303869999999998
21
-2.6636470000000001
0
LINE
8
BLACK
6
CONTINUOUS
10
3.6303869999999998
20
-2.6636470000000001
11
3.5351489999999997
21
-2.854123
0
LINE
8
BLACK
6
CONTINUOUS
10
3.5351489999999997
20
-2.854123
11
3.3446729999999998
21
-3.0446
0
LINE
8
BLACK
6
CONTINUOUS
10
3.3446729999999998
20
-3.0446
11
3.0589580000000001
21
-3.1398379999999997
0
LINE
8
BLACK
6
CONTINUOUS
10
3.0589580000000001
20
-3.1398379999999997
11
2.5827679999999997
21
-3.1398379999999997
0
LINE
8
BLACK
6
CONTINUOUS
10
4.5827679999999997
20
-3.1398379999999997
11
4.5827679999999997
21
-1.8065039999999999
0
LINE
8
BLACK
6
CONTINUOUS
10
4.5827679999999997
20
-2.1874569999999998
11
4.6780059999999999
21
-1.99698
0
LINE
8
BLACK
6
CONTINUOUS
10
4.6780059999999999
20
-1.99698
11
4.773244
21
-1.9017419999999998
0
LINE
8
BLACK
6
CONTINUOUS
10
4.773244
20
-1.9017419999999998
11
4.9637199999999995
21
-1.8065039999999999
0
LINE
8
BLACK
6
CONTINUOUS
10
4.9637199999999995
20
-1.8065039999999999
11
5.1541969999999999
21
-1.8065039999999999
0
LINE
8
BLACK
6
CONTINUOUS
10
5.8208630000000001
20
-3.1398379999999997
11
5.8208630000000001
21
-1.8065039999999999
0
LINE
8
BLACK
6
CONTINUOUS
10
5.8208630000000001
20
-1.1398379999999999
11
5.725625
21
-1.2350759999999998
0
LINE
8
BLACK
6
CONTINUOUS
10
5.725625
20
-1.2350759999999998
11
5.8208630000000001
21
-1.330314
0
LINE
8
BLACK
6
CONTINUOUS
10
5.8208630000000001
20
-1.330314
11
5.9161009999999994
21
-1.2350759999999998
0
LINE
8
BLACK
6
CONTINUOUS
10
5.9161009999999994
20
-1.2350759999999998
11
5.8208630000000001
21
-1.1398379999999999
0
LINE
8
BLACK
6
CONTINUOUS
10
5.8208630000000001
20
-1.1398379999999999
11
5.8208630000000001
21
-1.330314
0
LINE
8
BLACK
6
CONTINUOUS
10
7.0589579999999996
20
-3.1398379999999997
11
6.8684819999999993
21
-3.0446
0
LINE
8
BLACK
6
CONTINUOUS
10
6.8684819999999993
20
-3.0446
11
6.773244
21
-2.854123
0
LINE
8
BLACK
6
CONTINUOUS
10
6.773244
20
-2.854123
11
6.773244
21
-1.1398379999999999
0
LINE
8
BLACK
6
CONTINUOUS
10
8.1065769999999997
20
-3.1398379999999997
11
7.9161009999999994
21
-3.0446
0
LINE
8
BLACK
6
CONTINUOUS
10
7.9161009999999994
20
-3.0446
11
7.8208629999999992
21
-2.854123
0
LINE
8
BLACK
6
CONTINUOUS
10
7.8208629999999992
20
-2.854123
11
7.8208629999999992
21
-1.1398379999999999
0
LINE
8
BLACK
6
CONTINUOUS
10
10.3922919999999994
20
-3.1398379999999997
11
10.3922919999999994
21
-1.1398379999999999
0
LINE
8
BLACK
6
CONTINUOUS
10
10.3922919999999994
20
-1.1398379999999999
11
11.0589589999999998
21
-2.5684089999999999
0
LINE
8
BLACK
6
CONTINUOUS
10
11.0589589999999998
20
-2.5684089999999999
11
11.7256249999999991
21
-1.1398379999999999
0
LINE
8
BLACK
6
CONTINUOUS
10
11.7256249999999991
20
-1.1398379999999999
11
11.7256249999999991
21
-3.1398379999999997
0
LINE
8
BLACK
6
CONTINUOUS
10
13.5351489999999988
20
-3.1398379999999997
11
13.5351489999999988
21
-2.0922190000000001
0
LINE
8
BLACK
6
CONTINUOUS
10
13.5351489999999988
20
-2.0922190000000001
11
13.4399109999999986
21
-1.9017419999999998
0
LINE
8
BLACK
6
CONTINUOUS
10
13.4399109999999986
20
-1.9017419999999998
11
13.2494350000000001
21
-1.8065039999999999
0
LINE
8
BLACK
6
CONTINUOUS
10
13.2494350000000001
20
-1.8065039999999999
11
12.8684820000000002
21
-1.8065039999999999
0
LINE
8
BLACK
6
CONTINUOUS
10
12.8684820000000002
20
-1.8065039999999999
11
12.6780059999999999
21
-1.9017419999999998
0
LINE
8
BLACK
6
CONTINUOUS
10
13.5351489999999988
20
-3.0446
11
13.3446730000000002
21
-3.1398379999999997
0
LINE
8
BLACK
6
CONTINUOUS
10
13.3446730000000002
20
-3.1398379999999997
11
12.8684820000000002
21
-3.1398379999999997
0
LINE
8
BLACK
6
CONTINUOUS
10
12.8684820000000002
20
-3.1398379999999997
11
12.6780059999999999
21
-3.0446
0
LINE
8
BLACK
6
CONTINUOUS
10
12.6780059999999999
20
-3.0446
11
12.5827679999999997
21
-2.854123
0
LINE
8
BLACK
6
CONTINUOUS
10
12.5827679999999997
20
-2.854123
11
12.5827679999999997
21
-2.6636470000000001
0
LINE
8
BLACK
6
CONTINUOUS
10
12.5827679999999997
20
-2.6636470000000001
11
12.6780059999999999
21
-2.4731709999999998
0
LINE
8
BLACK
6
CONTINUOUS
10
12.6780059999999999
20
-2.4731709999999998
11
12.8684820000000002
21
-2.3779330000000001
0
LINE
8
BLACK
6
CONTINUOUS
10
12.8684820000000002
20
-2.3779330000000001
11
13.3446730000000002
21
-2.3779330000000001
0
LINE
8
BLACK
6
CONTINUOUS
10
13.3446730000000002
20
-2.3779330000000001
11
13.5351489999999988
21
-2.2826949999999999
0
LINE
8
BLACK
6
CONTINUOUS
10
14.4875299999999996
20
-1.8065039999999999
11
14.4875299999999996
21
-3.8065039999999999
0
LINE
8
BLACK
6
CONTINUOUS
10
14.4875299999999996
20
-1.9017419999999998
11
14.6780059999999999
21
-1.8065039999999999
0
LINE
8
BLACK
6
CONTINUOUS
10
14.6780059999999999
20
-1.8065039999999999
11
15.0589589999999998
21
-1.8065039999999999
0
LINE
8
BLACK
6
CONTINUOUS
10
15.0589589999999998
20
-1.8065039999999999
11
15.2494350000000001
21
-1.9017419999999998
0
LINE
8
BLACK
6
CONTINUOUS
10
15.2494350000000001
20
-1.9017419999999998
11
15.3446729999999985
21
-1.99698
0
LINE
8
BLACK
6
CONTINUOUS
10
15.3446729999999985
20
-1.99698
11
15.4399109999999986
21
-2.1874569999999998
0
LINE
8
BLACK
6
CONTINUOUS
10
15.4399109999999986
20
-2.1874569999999998
11
15.4399109999999986
21
-2.7588849999999998
0
LINE
8
BLACK
6
CONTINUOUS
10
15.4399109999999986
20
-2.7588849999999998
11
15.3446729999999985
21
-2.9493609999999997
0
LINE
8
BLACK
6
CONTINUOUS
10
15.3446729999999985
20
-2.9493609999999997
11
15.2494350000000001
21
-3.0446
0
LINE
8
BLACK
6
CONTINUOUS
10
15.2494350000000001
20
-3.0446
11
15.0589589999999998
21
-3.1398379999999997
0
LINE
8
BLACK
6
CONTINUOUS
10
15.0589589999999998
20
-3.1398379999999997
11
14.6780059999999999
21
-3.1398379999999997
0
LINE
8
BLACK
6
CONTINUOUS
10
14.6780059999999999
20
-3.1398379999999997
11
14.4875299999999996
21
-3.0446
0
LINE
8
BLACK
6
CONTINUOUS
10
16.2970539999999993
20
-2.9493609999999997
11
16.3922919999999976
21
-3.0446
0
LINE
8
BLACK
6
CONTINUOUS
10
16.3922919999999976
20
-3.0446
11
16.2970539999999993
21
-3.1398379999999997
0
LINE
8
BLACK
6
CONTINUOUS
10
16.2970539999999993
20
-3.1398379999999997
11
16.2018160000000009
21
-3.0446
0
LINE
8
BLACK
6
CONTINUOUS
10
16.2018160000000009
20
-3.0446
11
16.2970539999999993
21
-2.9493609999999997
0
LINE
8
BLACK
6
CONTINUOUS
10
16.2970539999999993
20
-2.9493609999999997
11
16.2970539999999993
21
-3.1398379999999997
0
LINE
8
BLACK
6
CONTINUOUS
10
16.2970539999999993
20
-1.9017419999999998
11
16.3922919999999976
21
-1.99698
0
LINE
8
BLACK
6
CONTINUOUS
10
16.3922919999999976
20
-1.99698
11
16.2970539999999993
21
-2.0922190000000001
0
LINE
8
BLACK
6
CONTINUOUS
10
16.2970539999999993
20
-2.0922190000000001
11
16.2018160000000009
21
-1.99698
0
LINE
8
BLACK
6
CONTINUOUS
10
16.2018160000000009
20
-1.99698
11
16.2970539999999993
21
-1.9017419999999998
0
LINE
8
BLACK
6
CONTINUOUS
10
16.2970539999999993
20
-1.9017419999999998
11
16.2970539999999993
21
-2.0922190000000001
0
LINE
8
BLACK
6
CONTINUOUS
10
-0.425
20
-6.2249999999999996
11
-0.025
21
-6.625
0
LINE
8
BLACK
6
CONTINUOUS
10
-0.025
20
-6.2249999999999996
11
-0.425
21
-6.625
0
LINE
8
BLACK
6
CONTINUOUS
10
2.9637199999999999
20
-5.3398379999999994
11
3.1541969999999999
21
-5.3398379999999994
0
LINE
8
BLACK
6
CONTINUOUS
10
3.1541969999999999
20
-5.3398379999999994
11
3.3446729999999998
21
-5.4350759999999996
0
LINE
8
BLACK
6
CONTINUOUS
10
3.3446729999999998
20
-5.4350759999999996
11
3.4399109999999999
21
-5.5303139999999997
0
LINE
8
BLACK
6
CONTINUOUS
10
3.4399109999999999
20
-5.5303139999999997
11
3.5351489999999997
21
-5.72079
0
LINE
8
BLACK
6
CONTINUOUS
10
3.5351489999999997
20
-5.72079
11
3.6303869999999998
21
-6.1017419999999998
0
LINE
8
BLACK
6
CONTINUOUS
10
3.6303869999999998
20
-6.1017419999999998
11
3.6303869999999998
21
-6.5779329999999998
0
LINE
8
BLACK
6
CONTINUOUS
10
3.6303869999999998
20
-6.5779329999999998
11
3.5351489999999997
21
-6.9588849999999995
0
LINE
8
BLACK
6
CONTINUOUS
10
3.5351489999999997
20
-6.9588849999999995
11
3.4399109999999999
21
-7.1493609999999999
0
LINE
8
BLACK
6
CONTINUOUS
10
3.4399109999999999
20
-7.1493609999999999
11
3.3446729999999998
21
-7.2445999999999993
0
LINE
8
BLACK
6
CONTINUOUS
10
3.3446729999999998
20
-7.2445999999999993
11
3.1541969999999999
21
-7.3398379999999994
0
LINE
8
BLACK
6
CONTINUOUS
10
3.1541969999999999
20
-7.3398379999999994
11
2.9637199999999999
21
-7.3398379999999994
0
LINE
8
BLACK
6
CONTINUOUS
10
2.9637199999999999
20
-7.3398379999999994
11
2.773244
21
-7.2445999999999993
0
LINE
8
BLACK
6
CONTINUOUS
10
2.773244
20
-7.2445999999999993
11
2.6780059999999999
21
-7.1493609999999999
0
LINE
8
BLACK
6
CONTINUOUS
10
2.6780059999999999
20
-7.1493609999999999
11
2.5827679999999997
21
-6.9588849999999995
0
LINE
8
BLACK
6
CONTINUOUS
10
2.5827679999999997
20
-6.9588849999999995
11
2.48753
21
-6.5779329999999998
0
LINE
8
BLACK
6
CONTINUOUS
10
2.48753
20
-6.5779329999999998
11
2.48753
21
-6.1017419999999998
0
LINE
8
BLACK
6
CONTINUOUS
10
2.48753
20
-6.1017419999999998
11
2.5827679999999997
21
-5.72079
0
LINE
8
BLACK
6
CONTINUOUS
10
2.5827679999999997
20
-5.72079
11
2.6780059999999999
21
-5.5303139999999997
0
LINE
8
BLACK
6
CONTINUOUS
10
2.6780059999999999
20
-5.5303139999999997
11
2.773244
21
-5.4350759999999996
0
LINE
8
BLACK
6
CONTINUOUS
10
2.773244
20
-5.4350759999999996
11
2.9637199999999999
21
-5.3398379999999994
0
LINE
8
BLACK
6
CONTINUOUS
10
4.4875299999999996
20
-7.1493609999999999
11
4.5827679999999997
21
-7.2445999999999993
0
LINE
8
BLACK
6
CONTINUOUS
10
4.5827679999999997
20
-7.2445999999999993
11
4.4875299999999996
21
-7.3398379999999994
0
LINE
8
BLACK
6
CONTINUOUS
10
4.4875299999999996
20
-7.3398379999999994
11
4.3922919999999994
21
-7.2445999999999993
0
LINE
8
BLACK
6
CONTINUOUS
10
4.3922919999999994
20
-7.2445999999999993
11
4.4875299999999996
21
-7.1493609999999999
0
LINE
8
BLACK
6
CONTINUOUS
10
4.4875299999999996
20
-7.1493609999999999
11
4.4875299999999996
21
-7.3398379999999994
0
LINE
8
BLACK
6
CONTINUOUS
10
6.2970540000000002
20
-6.0065039999999996
11
6.2970540000000002
21
-7.3398379999999994
0
LINE
8
BLACK
6
CONTINUOUS
10
5.8208630000000001
20
-5.2446000000000002
11
5.3446729999999993
21
-6.673171
0
LINE
8
BLACK
6
CONTINUOUS
10
5.3446729999999993
20
-6.673171
11
6.5827679999999997
21
-6.673171
0
LINE
8
BLACK
6
CONTINUOUS
10
7.725625
20
-5.3398379999999994
11
7.9161019999999995
21
-5.3398379999999994
0
LINE
8
BLACK
6
CONTINUOUS
10
7.9161019999999995
20
-5.3398379999999994
11
8.106577999999999
21
-5.4350759999999996
0
LINE
8
BLACK
6
CONTINUOUS
10
8.106577999999999
20
-5.4350759999999996
11
8.2018159999999991
21
-5.5303139999999997
0
LINE
8
BLACK
6
CONTINUOUS
10
8.2018159999999991
20
-5.5303139999999997
11
8.2970539999999993
21
-5.72079
0
LINE
8
BLACK
6
CONTINUOUS
10
8.2970539999999993
20
-5.72079
11
8.3922919999999994
21
-6.1017419999999998
0
LINE
8
BLACK
6
CONTINUOUS
10
8.3922919999999994
20
-6.1017419999999998
11
8.3922919999999994
21
-6.5779329999999998
0
LINE
8
BLACK
6
CONTINUOUS
10
8.3922919999999994
20
-6.5779329999999998
11
8.2970539999999993
21
-6.9588849999999995
0
LINE
8
BLACK
6
CONTINUOUS
10
8.2970539999999993
20
-6.9588849999999995
11
8.2018159999999991
21
-7.1493609999999999
0
LINE
8
BLACK
6
CONTINUOUS
10
8.2018159999999991
20
-7.1493609999999999
11
8.106577999999999
21
-7.2445999999999993
0
LINE
8
BLACK
6
CONTINUOUS
10
8.106577999999999
20
-7.2445999999999993
11
7.9161019999999995
21
-7.3398379999999994
0
LINE
8
BLACK
6
CONTINUOUS
10
7.9161019999999995
20
-7.3398379999999994
11
7.725625
21
-7.3398379999999994
0
LINE
8
BLACK
6
CONTINUOUS
10
7.725625
20
-7.3398379999999994
11
7.5351489999999997
21
-7.2445999999999993
0
LINE
8
BLACK
6
CONTINUOUS
10
7.5351489999999997
20
-7.2445999999999993
11
7.4399109999999995
21
-7.1493609999999999
0
LINE
8
BLACK
6
CONTINUOUS
10
7.4399109999999995
20
-7.1493609999999999
11
7.3446729999999993
21
-6.9588849999999995
0
LINE
8
BLACK
6
CONTINUOUS
10
7.3446729999999993
20
-6.9588849999999995
11
7.2494350000000001
21
-6.5779329999999998
0
LINE
8
BLACK
6
CONTINUOUS
10
7.2494350000000001
20
-6.5779329999999998
11
7.2494350000000001
21
-6.1017419999999998
0
LINE
8
BLACK
6
CONTINUOUS
10
7.2494350000000001
20
-6.1017419999999998
11
7.3446729999999993
21
-5.72079
0
LINE
8
BLACK
6
CONTINUOUS
10
7.3446729999999993
20
-5.72079
11
7.4399109999999995
21
-5.5303139999999997
0
LINE
8
BLACK
6
CONTINUOUS
10
7.4399109999999995
20
-5.5303139999999997
11
7.5351489999999997
21
-5.4350759999999996
0
LINE
8
BLACK
6
CONTINUOUS
10
7.5351489999999997
20
-5.4350759999999996
11
7.725625
21
-5.3398379999999994
0
LINE
8
BLACK
6
CONTINUOUS
10
9.6303869999999989
20
-5.3398379999999994
11
9.8208640000000003
21
-5.3398379999999994
0
LINE
8
BLACK
6
CONTINUOUS
10
9.8208640000000003
20
-5.3398379999999994
11
10.0113399999999988
21
-5.4350759999999996
0
LINE
8
BLACK
6
CONTINUOUS
10
10.0113399999999988
20
-5.4350759999999996
11
10.106577999999999
21
-5.5303139999999997
0
LINE
8
BLACK
6
CONTINUOUS
10
10.106577999999999
20
-5.5303139999999997
11
10.2018159999999991
21
-5.72079
0
LINE
8
BLACK
6
CONTINUOUS
10
10.2018159999999991
20
-5.72079
11
10.2970539999999993
21
-6.1017419999999998
0
LINE
8
BLACK
6
CONTINUOUS
10
10.2970539999999993
20
-6.1017419999999998
11
10.2970539999999993
21
-6.5779329999999998
0
LINE
8
BLACK
6
CONTINUOUS
10
10.2970539999999993
20
-6.5779329999999998
11
10.2018159999999991
21
-6.9588849999999995
0
LINE
8
BLACK
6
CONTINUOUS
10
10.2018159999999991
20
-6.9588849999999995
11
10.106577999999999
21
-7.1493609999999999
0
LINE
8
BLACK
6
CONTINUOUS
10
10.106577999999999
20
-7.1493609999999999
11
10.0113399999999988
21
-7.2445999999999993
0
LINE
8
BLACK
6
CONTINUOUS
10
10.0113399999999988
20
-7.2445999999999993
11
9.8208640000000003
21
-7.3398379999999994
0
LINE
8
BLACK
6
CONTINUOUS
10
9.8208640000000003
20
-7.3398379999999994
11
9.6303869999999989
21
-7.3398379999999994
0
LINE
8
BLACK
6
CONTINUOUS
10
9.6303869999999989
20
-7.3398379999999994
11
9.4399110000000004
21
-7.2445999999999993
0
LINE
8
BLACK
6
CONTINUOUS
10
9.4399110000000004
20
-7.2445999999999993
11
9.3446730000000002
21
-7.1493609999999999
0
LINE
8
BLACK
6
CONTINUOUS
10
9.3446730000000002
20
-7.1493609999999999
11
9.2494350000000001
21
-6.9588849999999995
0
LINE
8
BLACK
6
CONTINUOUS
10
9.2494350000000001
20
-6.9588849999999995
11
9.1541969999999999
21
-6.5779329999999998
0
LINE
8
BLACK
6
CONTINUOUS
10
9.1541969999999999
20
-6.5779329999999998
11
9.1541969999999999
21
-6.1017419999999998
0
LINE
8
BLACK
6
CONTINUOUS
10
9.1541969999999999
20
-6.1017419999999998
11
9.2494350000000001
21
-5.72079
0
LINE
8
BLACK
6
CONTINUOUS
10
9.2494350000000001
20
-5.72079
11
9.3446730000000002
21
-5.5303139999999997
0
LINE
8
BLACK
6
CONTINUOUS
10
9.3446730000000002
20
-5.5303139999999997
11
9.4399110000000004
21
-5.4350759999999996
0
LINE
8
BLACK
6
CONTINUOUS
10
9.4399110000000004
20
-5.4350759999999996
11
9.6303869999999989
21
-5.3398379999999994
0
LINE
8
BLACK
6
CONTINUOUS
10
11.1541969999999999
20
-7.3398379999999994
11
11.1541969999999999
21
-6.0065039999999996
0
LINE
8
BLACK
6
CONTINUOUS
10
11.1541969999999999
20
-6.1969799999999999
11
11.2494350000000001
21
-6.1017419999999998
0
LINE
8
BLACK
6
CONTINUOUS
10
11.2494350000000001
20
-6.1017419999999998
11
11.4399109999999986
21
-6.0065039999999996
0
LINE
8
BLACK
6
CONTINUOUS
10
11.4399109999999986
20
-6.0065039999999996
11
11.7256260000000001
21
-6.0065039999999996
0
LINE
8
BLACK
6
CONTINUOUS
10
11.7256260000000001
20
-6.0065039999999996
11
11.9161019999999986
21
-6.1017419999999998
0
LINE
8
BLACK
6
CONTINUOUS
10
11.9161019999999986
20
-6.1017419999999998
11
12.0113399999999988
21
-6.2922189999999993
0
LINE
8
BLACK
6
CONTINUOUS
10
12.0113399999999988
20
-6.2922189999999993
11
12.0113399999999988
21
-7.3398379999999994
0
LINE
8
BLACK
6
CONTINUOUS
10
12.0113399999999988
20
-6.2922189999999993
11
12.106577999999999
21
-6.1017419999999998
0
LINE
8
BLACK
6
CONTINUOUS
10
12.106577999999999
20
-6.1017419999999998
11
12.2970539999999993
21
-6.0065039999999996
0
LINE
8
BLACK
6
CONTINUOUS
10
12.2970539999999993
20
-6.0065039999999996
11
12.5827679999999997
21
-6.0065039999999996
0
LINE
8
BLACK
6
CONTINUOUS
10
12.5827679999999997
20
-6.0065039999999996
11
12.7732449999999993
21
-6.1017419999999998
0
LINE
8
BLACK
6
CONTINUOUS
10
12.7732449999999993
20
-6.1017419999999998
11
12.8684829999999994
21
-6.2922189999999993
0
LINE
8
BLACK
6
CONTINUOUS
10
12.8684829999999994
20
-6.2922189999999993
11
12.8684829999999994
21
-7.3398379999999994
0
LINE
8
BLACK
6
CONTINUOUS
10
13.8208640000000003
20
-7.3398379999999994
11
13.8208640000000003
21
-6.0065039999999996
0
LINE
8
BLACK
6
CONTINUOUS
10
13.8208640000000003
20
-6.1969799999999999
11
13.9161019999999986
21
-6.1017419999999998
0
LINE
8
BLACK
6
CONTINUOUS
10
13.9161019999999986
20
-6.1017419999999998
11
14.106577999999999
21
-6.0065039999999996
0
LINE
8
BLACK
6
CONTINUOUS
10
14.106577999999999
20
-6.0065039999999996
11
14.3922929999999987
21
-6.0065039999999996
0
LINE
8
BLACK
6
CONTINUOUS
10
14.3922929999999987
20
-6.0065039999999996
11
14.582768999999999
21
-6.1017419999999998
0
LINE
8
BLACK
6
CONTINUOUS
10
14.582768999999999
20
-6.1017419999999998
11
14.6780069999999991
21
-6.2922189999999993
0
LINE
8
BLACK
6
CONTINUOUS
10
14.6780069999999991
20
-6.2922189999999993
11
14.6780069999999991
21
-7.3398379999999994
0
LINE
8
BLACK
6
CONTINUOUS
10
14.6780069999999991
20
-6.2922189999999993
11
14.7732449999999993
21
-6.1017419999999998
0
LINE
8
BLACK
6
CONTINUOUS
10
14.7732449999999993
20
-6.1017419999999998
11
14.9637209999999996
21
-6.0065039999999996
0
LINE
8
BLACK
6
CONTINUOUS
10
14.9637209999999996
20
-6.0065039999999996
11
15.2494350000000001
21
-6.0065039999999996
0
LINE
8
BLACK
6
CONTINUOUS
10
15.2494350000000001
20
-6.0065039999999996
11
15.4399119999999996
21
-6.1017419999999998
0
LINE
8
BLACK
6
CONTINUOUS
10
15.4399119999999996
20
-6.1017419999999998
11
15.5351499999999998
21
-6.2922189999999993
0
LINE
8
BLACK
6
CONTINUOUS
10
15.5351499999999998
20
-6.2922189999999993
11
15.5351499999999998
21
-7.3398379999999994
0
LINE
8
BLACK
6
CONTINUOUS
10
19.4399119999999996
20
-5.2446000000000002
11
17.7256269999999994
21
-7.8160279999999993
0
LINE
8
BLACK
6
CONTINUOUS
10
22.011340999999998
20
-5.3398379999999994
11
22.2018179999999994
21
-5.3398379999999994
0
LINE
8
BLACK
6
CONTINUOUS
10
22.2018179999999994
20
-5.3398379999999994
11
22.3922939999999997
21
-5.4350759999999996
0
LINE
8
BLACK
6
CONTINUOUS
10
22.3922939999999997
20
-5.4350759999999996
11
22.4875319999999981
21
-5.5303139999999997
0
LINE
8
BLACK
6
CONTINUOUS
10
22.4875319999999981
20
-5.5303139999999997
11
22.58277
21
-5.72079
0
LINE
8
BLACK
6
CONTINUOUS
10
22.58277
20
-5.72079
11
22.6780079999999984
21
-6.1017419999999998
0
LINE
8
BLACK
6
CONTINUOUS
10
22.6780079999999984
20
-6.1017419999999998
11
22.6780079999999984
21
-6.5779329999999998
0
LINE
8
BLACK
6
CONTINUOUS
10
22.6780079999999984
20
-6.5779329999999998
11
22.58277
21
-6.9588849999999995
0
LINE
8
BLACK
6
CONTINUOUS
10
22.58277
20
-6.9588849999999995
11
22.4875319999999981
21
-7.1493609999999999
0
LINE
8
BLACK
6
CONTINUOUS
10
22.4875319999999981
20
-7.1493609999999999
11
22.3922939999999997
21
-7.2445999999999993
0
LINE
8
BLACK
6
CONTINUOUS
10
22.3922939999999997
20
-7.2445999999999993
11
22.2018179999999994
21
-7.3398379999999994
0
LINE
8
BLACK
6
CONTINUOUS
10
22.2018179999999994
20
-7.3398379999999994
11
22.011340999999998
21
-7.3398379999999994
0
LINE
8
BLACK
6
CONTINUOUS
10
22.011340999999998
20
-7.3398379999999994
11
21.8208649999999977
21
-7.2445999999999993
0
LINE
8
BLACK
6
CONTINUOUS
10
21.8208649999999977
20
-7.2445999999999993
11
21.7256269999999994
21
-7.1493609999999999
0
LINE
8
BLACK
6
CONTINUOUS
10
21.7256269999999994
20
-7.1493609999999999
11
21.6303889999999974
21
-6.9588849999999995
0
LINE
8
BLACK
6
CONTINUOUS
10
21.6303889999999974
20
-6.9588849999999995
11
21.535150999999999
21
-6.5779329999999998
0
LINE
8
BLACK
6
CONTINUOUS
10
21.535150999999999
20
-6.5779329999999998
11
21.535150999999999
21
-6.1017419999999998
0
LINE
8
BLACK
6
CONTINUOUS
10
21.535150999999999
20
-6.1017419999999998
11
21.6303889999999974
21
-5.72079
0
LINE
8
BLACK
6
CONTINUOUS
10
21.6303889999999974
20
-5.72079
11
21.7256269999999994
21
-5.5303139999999997
0
LINE
8
BLACK
6
CONTINUOUS
10
21.7256269999999994
20
-5.5303139999999997
11
21.8208649999999977
21
-5.4350759999999996
0
LINE
8
BLACK
6
CONTINUOUS
10
21.8208649999999977
20
-5.4350759999999996
11
22.011340999999998
21
-5.3398379999999994
0
LINE
8
BLACK
6
CONTINUOUS
10
23.535150999999999
20
-7.1493609999999999
11
23.6303889999999974
21
-7.2445999999999993
0
LINE
8
BLACK
6
CONTINUOUS
10
23.6303889999999974
20
-7.2445999999999993
11
23.535150999999999
21
-7.3398379999999994
0
LINE
8
BLACK
6
CONTINUOUS
10
23.535150999999999
20
-7.3398379999999994
11
23.4399130000000007
21
-7.2445999999999993
0
LINE
8
BLACK
6
CONTINUOUS
10
23.4399130000000007
20
-7.2445999999999993
11
23.535150999999999
21
-7.1493609999999999
0
LINE
8
BLACK
6
CONTINUOUS
10
23.535150999999999
20
-7.1493609999999999
11
23.535150999999999
21
-7.3398379999999994
0
LINE
8
BLACK
6
CONTINUOUS
10
24.8684839999999987
20
-5.3398379999999994
11
25.058961
21
-5.3398379999999994
0
LINE
8
BLACK
6
CONTINUOUS
10
25.058961
20
-5.3398379999999994
11
25.2494370000000004
21
-5.4350759999999996
0
LINE
8
BLACK
6
CONTINUOUS
10
25.2494370000000004
20
-5.4350759999999996
11
25.3446749999999987
21
-5.5303139999999997
0
LINE
8
BLACK
6
CONTINUOUS
10
25.3446749999999987
20
-5.5303139999999997
11
25.4399129999999971
21
-5.72079
0
LINE
8
BLACK
6
CONTINUOUS
10
25.4399129999999971
20
-5.72079
11
25.535150999999999
21
-6.1017419999999998
0
LINE
8
BLACK
6
CONTINUOUS
10
25.535150999999999
20
-6.1017419999999998
11
25.535150999999999
21
-6.5779329999999998
0
LINE
8
BLACK
6
CONTINUOUS
10
25.535150999999999
20
-6.5779329999999998
11
25.4399129999999971
21
-6.9588849999999995
0
LINE
8
BLACK
6
CONTINUOUS
10
25.4399129999999971
20
-6.9588849999999995
11
25.3446749999999987
21
-7.1493609999999999
0
LINE
8
BLACK
6
CONTINUOUS
10
25.3446749999999987
20
-7.1493609999999999
11
25.2494370000000004
21
-7.2445999999999993
0
LINE
8
BLACK
6
CONTINUOUS
10
25.2494370000000004
20
-7.2445999999999993
11
25.058961
21
-7.3398379999999994
0
LINE
8
BLACK
6
CONTINUOUS
10
25.058961
20
-7.3398379999999994
11
24.8684839999999987
21
-7.3398379999999994
0
LINE
8
BLACK
6
CONTINUOUS
10
24.8684839999999987
20
-7.3398379999999994
11
24.6780079999999984
21
-7.2445999999999993
0
LINE
8
BLACK
6
CONTINUOUS
10
24.6780079999999984
20
-7.2445999999999993
11
24.58277
21
-7.1493609999999999
0
LINE
8
BLACK
6
CONTINUOUS
10
24.58277
20
-7.1493609999999999
11
24.4875319999999981
21
-6.9588849999999995
0
LINE
8
BLACK
6
CONTINUOUS
10
24.4875319999999981
20
-6.9588849999999995
11
24.3922939999999997
21
-6.5779329999999998
0
LINE
8
BLACK
6
CONTINUOUS
10
24.3922939999999997
20
-6.5779329999999998
11
24.3922939999999997
21
-6.1017419999999998
0
LINE
8
BLACK
6
CONTINUOUS
10
24.3922939999999997
20
-6.1017419999999998
11
24.4875319999999981
21
-5.72079
0
LINE
8
BLACK
6
CONTINUOUS
10
24.4875319999999981
20
-5.72079
11
24.58277
21
-5.5303139999999997
0
LINE
8
BLACK
6
CONTINUOUS
10
24.58277
20
-5.5303139999999997
11
24.6780079999999984
21
-5.4350759999999996
0
LINE
8
BLACK
6
CONTINUOUS
10
24.6780079999999984
20
-5.4350759999999996
11
24.8684839999999987
21
-5.3398379999999994
0
LINE
8
BLACK
6
CONTINUOUS
10
27.4399129999999971
20
-7.3398379999999994
11
26.2970559999999978
21
-7.3398379999999994
0
LINE
8
BLACK
6
CONTINUOUS
10
26.8684839999999987
20
-7.3398379999999994
11
26.8684839999999987
21
-5.3398379999999994
0
LINE
8
BLACK
6
CONTINUOUS
10
26.8684839999999987
20
-5.3398379999999994
11
26.6780079999999984
21
-5.6255519999999999
0
LINE
8
BLACK
6
CONTINUOUS
10
26.6780079999999984
20
-5.6255519999999999
11
26.4875319999999981
21
-5.8160279999999993
0
LINE
8
BLACK
6
CONTINUOUS
10
26.4875319999999981
20
-5.8160279999999993
11
26.2970559999999978
21
-5.9112659999999995
0
LINE
8
BLACK
6
CONTINUOUS
10
29.2494370000000004
20
-5.3398379999999994
11
28.2970559999999978
21
-5.3398379999999994
0
LINE
8
BLACK
6
CONTINUOUS
10
28.2970559999999978
20
-5.3398379999999994
11
28.2018179999999994
21
-6.2922189999999993
0
LINE
8
BLACK
6
CONTINUOUS
10
28.2018179999999994
20
-6.2922189999999993
11
28.2970559999999978
21
-6.1969799999999999
0
LINE
8
BLACK
6
CONTINUOUS
10
28.2970559999999978
20
-6.1969799999999999
11
28.4875319999999981
21
-6.1017419999999998
0
LINE
8
BLACK
6
CONTINUOUS
10
28.4875319999999981
20
-6.1017419999999998
11
28.9637229999999981
21
-6.1017419999999998
0
LINE
8
BLACK
6
CONTINUOUS
10
28.9637229999999981
20
-6.1017419999999998
11
29.1541989999999984
21
-6.1969799999999999
0
LINE
8
BLACK
6
CONTINUOUS
10
29.1541989999999984
20
-6.1969799999999999
11
29.2494370000000004
21
-6.2922189999999993
0
LINE
8
BLACK
6
CONTINUOUS
10
29.2494370000000004
20
-6.2922189999999993
11
29.3446749999999987
21
-6.4826949999999997
0
LINE
8
BLACK
6
CONTINUOUS
10
29.3446749999999987
20
-6.4826949999999997
11
29.3446749999999987
21
-6.9588849999999995
0
LINE
8
BLACK
6
CONTINUOUS
10
29.3446749999999987
20
-6.9588849999999995
11
29.2494370000000004
21
-7.1493609999999999
0
LINE
8
BLACK
6
CONTINUOUS
10
29.2494370000000004
20
-7.1493609999999999
11
29.1541989999999984
21
-7.2445999999999993
0
LINE
8
BLACK
6
CONTINUOUS
10
29.1541989999999984
20
-7.2445999999999993
11
28.9637229999999981
21
-7.3398379999999994
0
LINE
8
BLACK
6
CONTINUOUS
10
28.9637229999999981
20
-7.3398379999999994
11
28.4875319999999981
21
-7.3398379999999994
0
LINE
8
BLACK
6
CONTINUOUS
10
28.4875319999999981
20
-7.3398379999999994
11
28.2970559999999978
21
-7.2445999999999993
0
LINE
8
BLACK
6
CONTINUOUS
10
28.2970559999999978
20
-7.2445999999999993
11
28.2018179999999994
21
-7.1493609999999999
0
LINE
8
BLACK
6
CONTINUOUS
10
30.0113419999999991
20
-5.3398379999999994
11
31.3446749999999987
21
-5.3398379999999994
0
LINE
8
BLACK
6
CONTINUOUS
10
31.3446749999999987
20
-5.3398379999999994
11
30.4875319999999981
21
-7.3398379999999994
0
LINE
8
BLACK
6
CONTINUOUS
10
32.0113419999999991
20
-5.3398379999999994
11
32.0113419999999991
21
-5.72079
0
LINE
8
BLACK
6
CONTINUOUS
10
32.7732469999999978
20
-5.3398379999999994
11
32.7732469999999978
21
-5.72079
0
LINE
8
BLACK
6
CONTINUOUS
10
35.7256289999999979
20
-8.1017419999999998
11
35.6303899999999985
21
-8.0065039999999996
0
LINE
8
BLACK
6
CONTINUOUS
10
35.6303899999999985
20
-8.0065039999999996
11
35.4399140000000017
21
-7.72079
0
LINE
8
BLACK
6
CONTINUOUS
10
35.4399140000000017
20
-7.72079
11
35.3446759999999998
21
-7.5303139999999997
0
LINE
8
BLACK
6
CONTINUOUS
10
35.3446759999999998
20
-7.5303139999999997
11
35.2494379999999978
21
-7.2445999999999993
0
LINE
8
BLACK
6
CONTINUOUS
10
35.2494379999999978
20
-7.2445999999999993
11
35.1541999999999959
21
-6.7684090000000001
0
LINE
8
BLACK
6
CONTINUOUS
10
35.1541999999999959
20
-6.7684090000000001
11
35.1541999999999959
21
-6.3874569999999995
0
LINE
8
BLACK
6
CONTINUOUS
10
35.1541999999999959
20
-6.3874569999999995
11
35.2494379999999978
21
-5.9112659999999995
0
LINE
8
BLACK
6
CONTINUOUS
10
35.2494379999999978
20
-5.9112659999999995
11
35.3446759999999998
21
-5.6255519999999999
0
LINE
8
BLACK
6
CONTINUOUS
10
35.3446759999999998
20
-5.6255519999999999
11
35.4399140000000017
21
-5.4350759999999996
0
LINE
8
BLACK
6
CONTINUOUS
10
35.4399140000000017
20
-5.4350759999999996
11
35.6303899999999985
21
-5.1493609999999999
0
LINE
8
BLACK
6
CONTINUOUS
10
35.6303899999999985
20
-5.1493609999999999
11
35.7256289999999979
21
-5.0541229999999997
0
LINE
8
BLACK
6
CONTINUOUS
10
37.5351519999999965
20
-7.3398379999999994
11
36.3922949999999972
21
-7.3398379999999994
0
LINE
8
BLACK
6
CONTINUOUS
10
36.9637230000000017
20
-7.3398379999999994
11
36.9637230000000017
21
-5.3398379999999994
0
LINE
8
BLACK
6
CONTINUOUS
10
36.9637230000000017
20
-5.3398379999999994
11
36.7732469999999978
21
-5.6255519999999999
0
LINE
8
BLACK
6
CONTINUOUS
10
36.7732469999999978
20
-5.6255519999999999
11
36.582771000000001
21
-5.8160279999999993
0
LINE
8
BLACK
6
CONTINUOUS
10
36.582771000000001
20
-5.8160279999999993
11
36.3922949999999972
21
-5.9112659999999995
0
LINE
8
BLACK
6
CONTINUOUS
10
38.2018190000000004
20
-5.3398379999999994
11
39.5351519999999965
21
-5.3398379999999994
0
LINE
8
BLACK
6
CONTINUOUS
10
39.5351519999999965
20
-5.3398379999999994
11
38.6780089999999959
21
-7.3398379999999994
0
LINE
8
BLACK
6
CONTINUOUS
10
41.8208669999999998
20
-7.3398379999999994
11
41.8208669999999998
21
-5.3398379999999994
0
LINE
8
BLACK
6
CONTINUOUS
10
42.6780100000000004
20
-7.3398379999999994
11
42.6780100000000004
21
-6.2922189999999993
0
LINE
8
BLACK
6
CONTINUOUS
10
42.6780100000000004
20
-6.2922189999999993
11
42.5827719999999985
21
-6.1017419999999998
0
LINE
8
BLACK
6
CONTINUOUS
10
42.5827719999999985
20
-6.1017419999999998
11
42.3922959999999946
21
-6.0065039999999996
0
LINE
8
BLACK
6
CONTINUOUS
10
42.3922959999999946
20
-6.0065039999999996
11
42.1065809999999985
21
-6.0065039999999996
0
LINE
8
BLACK
6
CONTINUOUS
10
42.1065809999999985
20
-6.0065039999999996
11
41.9161049999999946
21
-6.1017419999999998
0
LINE
8
BLACK
6
CONTINUOUS
10
41.9161049999999946
20
-6.1017419999999998
11
41.8208669999999998
21
-6.1969799999999999
0
LINE
8
BLACK
6
CONTINUOUS
10
43.9161049999999946
20
-7.3398379999999994
11
43.7256289999999979
21
-7.2445999999999993
0
LINE
8
BLACK
6
CONTINUOUS
10
43.7256289999999979
20
-7.2445999999999993
11
43.6303909999999959
21
-7.1493609999999999
0
LINE
8
BLACK
6
CONTINUOUS
10
43.6303909999999959
20
-7.1493609999999999
11
43.5351530000000011
21
-6.9588849999999995
0
LINE
8
BLACK
6
CONTINUOUS
10
43.5351530000000011
20
-6.9588849999999995
11
43.5351530000000011
21
-6.3874569999999995
0
LINE
8
BLACK
6
CONTINUOUS
10
43.5351530000000011
20
-6.3874569999999995
11
43.6303909999999959
21
-6.1969799999999999
0
LINE
8
BLACK
6
CONTINUOUS
10
43.6303909999999959
20
-6.1969799999999999
11
43.7256289999999979
21
-6.1017419999999998
0
LINE
8
BLACK
6
CONTINUOUS
10
43.7256289999999979
20
-6.1017419999999998
11
43.9161049999999946
21
-6.0065039999999996
0
LINE
8
BLACK
6
CONTINUOUS
10
43.9161049999999946
20
-6.0065039999999996
11
44.2018199999999979
21
-6.0065039999999996
0
LINE
8
BLACK
6
CONTINUOUS
10
44.2018199999999979
20
-6.0065039999999996
11
44.3922959999999946
21
-6.1017419999999998
0
LINE
8
BLACK
6
CONTINUOUS
10
44.3922959999999946
20
-6.1017419999999998
11
44.4875339999999966
21
-6.1969799999999999
0
LINE
8
BLACK
6
CONTINUOUS
10
44.4875339999999966
20
-6.1969799999999999
11
44.5827719999999985
21
-6.3874569999999995
0
LINE
8
BLACK
6
CONTINUOUS
10
44.5827719999999985
20
-6.3874569999999995
11
44.5827719999999985
21
-6.9588849999999995
0
LINE
8
BLACK
6
CONTINUOUS
10
44.5827719999999985
20
-6.9588849999999995
11
44.4875339999999966
21
-7.1493609999999999
0
LINE
8
BLACK
6
CONTINUOUS
10
44.4875339999999966
20
-7.1493609999999999
11
44.3922959999999946
21
-7.2445999999999993
0
LINE
8
BLACK
6
CONTINUOUS
10
44.3922959999999946
20
-7.2445999999999993
11
44.2018199999999979
21
-7.3398379999999994
0
LINE
8
BLACK
6
CONTINUOUS
10
44.2018199999999979
20
-7.3398379999999994
11
43.9161049999999946
21
-7.3398379999999994
0
LINE
8
BLACK
6
CONTINUOUS
10
45.7256289999999979
20
-7.3398379999999994
11
45.5351530000000011
21
-7.2445999999999993
0
LINE
8
BLACK
6
CONTINUOUS
10
45.5351530000000011
20
-7.2445999999999993
11
45.4399149999999992
21
-7.0541229999999997
0
LINE
8
BLACK
6
CONTINUOUS
10
45.4399149999999992
20
-7.0541229999999997
11
45.4399149999999992
21
-5.3398379999999994
0
LINE
8
BLACK
6
CONTINUOUS
10
47.2494389999999953
20
-7.2445999999999993
11
47.0589629999999985
21
-7.3398379999999994
0
LINE
8
BLACK
6
CONTINUOUS
10
47.0589629999999985
20
-7.3398379999999994
11
46.6780100000000004
21
-7.3398379999999994
0
LINE
8
BLACK
6
CONTINUOUS
10
46.6780100000000004
20
-7.3398379999999994
11
46.4875339999999966
21
-7.2445999999999993
0
LINE
8
BLACK
6
CONTINUOUS
10
46.4875339999999966
20
-7.2445999999999993
11
46.3922959999999946
21
-7.0541229999999997
0
LINE
8
BLACK
6
CONTINUOUS
10
46.3922959999999946
20
-7.0541229999999997
11
46.3922959999999946
21
-6.2922189999999993
0
LINE
8
BLACK
6
CONTINUOUS
10
46.3922959999999946
20
-6.2922189999999993
11
46.4875339999999966
21
-6.1017419999999998
0
LINE
8
BLACK
6
CONTINUOUS
10
46.4875339999999966
20
-6.1017419999999998
11
46.6780100000000004
21
-6.0065039999999996
0
LINE
8
BLACK
6
CONTINUOUS
10
46.6780100000000004
20
-6.0065039999999996
11
47.0589629999999985
21
-6.0065039999999996
0
LINE
8
BLACK
6
CONTINUOUS
10
47.0589629999999985
20
-6.0065039999999996
11
47.2494389999999953
21
-6.1017419999999998
0
LINE
8
BLACK
6
CONTINUOUS
10
47.2494389999999953
20
-6.1017419999999998
11
47.3446769999999972
21
-6.2922189999999993
0
LINE
8
BLACK
6
CONTINUOUS
10
47.3446769999999972
20
-6.2922189999999993
11
47.3446769999999972
21
-6.4826949999999997
0
LINE
8
BLACK
6
CONTINUOUS
10
47.3446769999999972
20
-6.4826949999999997
11
46.3922959999999946
21
-6.673171
0
LINE
8
BLACK
6
CONTINUOUS
10
48.106581999999996
20
-7.2445999999999993
11
48.2970579999999998
21
-7.3398379999999994
0
LINE
8
BLACK
6
CONTINUOUS
10
48.2970579999999998
20
-7.3398379999999994
11
48.6780100000000004
21
-7.3398379999999994
0
LINE
8
BLACK
6
CONTINUOUS
10
48.6780100000000004
20
-7.3398379999999994
11
48.8684869999999947
21
-7.2445999999999993
0
LINE
8
BLACK
6
CONTINUOUS
10
48.8684869999999947
20
-7.2445999999999993
11
48.9637249999999966
21
-7.0541229999999997
0
LINE
8
BLACK
6
CONTINUOUS
10
48.9637249999999966
20
-7.0541229999999997
11
48.9637249999999966
21
-6.9588849999999995
0
LINE
8
BLACK
6
CONTINUOUS
10
48.9637249999999966
20
-6.9588849999999995
11
48.8684869999999947
21
-6.7684090000000001
0
LINE
8
BLACK
6
CONTINUOUS
10
48.8684869999999947
20
-6.7684090000000001
11
48.6780100000000004
21
-6.673171
0
LINE
8
BLACK
6
CONTINUOUS
10
48.6780100000000004
20
-6.673171
11
48.3922959999999946
21
-6.673171
0
LINE
8
BLACK
6
CONTINUOUS
10
48.3922959999999946
20
-6.673171
11
48.2018199999999979
21
-6.5779329999999998
0
LINE
8
BLACK
6
CONTINUOUS
10
48.2018199999999979
20
-6.5779329999999998
11
48.106581999999996
21
-6.3874569999999995
0
LINE
8
BLACK
6
CONTINUOUS
10
48.106581999999996
20
-6.3874569999999995
11
48.106581999999996
21
-6.2922189999999993
0
LINE
8
BLACK
6
CONTINUOUS
10
48.106581999999996
20
-6.2922189999999993
11
48.2018199999999979
21
-6.1017419999999998
0
LINE
8
BLACK
6
CONTINUOUS
10
48.2018199999999979
20
-6.1017419999999998
11
48.3922959999999946
21
-6.0065039999999996
0
LINE
8
BLACK
6
CONTINUOUS
10
48.3922959999999946
20
-6.0065039999999996
11
48.6780100000000004
21
-6.0065039999999996
0
LINE
8
BLACK
6
CONTINUOUS
10
48.6780100000000004
20
-6.0065039999999996
11
48.8684869999999947
21
-6.1017419999999998
0
LINE
8
BLACK
6
CONTINUOUS
10
49.6303920000000005
20
-8.1017419999999998
11
49.7256299999999953
21
-8.0065039999999996
0
LINE
8
BLACK
6
CONTINUOUS
10
49.7256299999999953
20
-8.0065039999999996
11
49.9161059999999992
21
-7.72079
0
LINE
8
BLACK
6
CONTINUOUS
10
49.9161059999999992
20
-7.72079
11
50.0113440000000011
21
-7.5303139999999997
0
LINE
8
BLACK
6
CONTINUOUS
10
50.0113440000000011
20
-7.5303139999999997
11
50.106581999999996
21
-7.2445999999999993
0
LINE
8
BLACK
6
CONTINUOUS
10
50.106581999999996
20
-7.2445999999999993
11
50.2018199999999979
21
-6.7684090000000001
0
LINE
8
BLACK
6
CONTINUOUS
10
50.2018199999999979
20
-6.7684090000000001
11
50.2018199999999979
21
-6.3874569999999995
0
LINE
8
BLACK
6
CONTINUOUS
10
50.2018199999999979
20
-6.3874569999999995
11
50.106581999999996
21
-5.9112659999999995
0
LINE
8
BLACK
6
CONTINUOUS
10
50.106581999999996
20
-5.9112659999999995
11
50.0113440000000011
21
-5.6255519999999999
0
LINE
8
BLACK
6
CONTINUOUS
10
50.0113440000000011
20
-5.6255519999999999
11
49.9161059999999992
21
-5.4350759999999996
0
LINE
8
BLACK
6
CONTINUOUS
10
49.9161059999999992
20
-5.4350759999999996
11
49.7256299999999953
21
-5.1493609999999999
0
LINE
8
BLACK
6
CONTINUOUS
10
49.7256299999999953
20
-5.1493609999999999
11
49.6303920000000005
21
-5.0541229999999997
  0
ENDSEC
  0
EOF
